<?xml version="1.0" encoding="utf-8" standalone="no"?>
<!DOCTYPE svg PUBLIC "-//W3C//DTD SVG 1.1//EN"
  "http://www.w3.org/Graphics/SVG/1.1/DTD/svg11.dtd">
<svg xmlns:xlink="http://www.w3.org/1999/xlink" width="568.757812pt" height="856.042031pt" viewBox="0 0 568.757812 856.042031" xmlns="http://www.w3.org/2000/svg" version="1.1">
 <metadata>
  <rdf:RDF xmlns:dc="http://purl.org/dc/elements/1.1/" xmlns:cc="http://creativecommons.org/ns#" xmlns:rdf="http://www.w3.org/1999/02/22-rdf-syntax-ns#">
   <cc:Work>
    <dc:type rdf:resource="http://purl.org/dc/dcmitype/StillImage"/>
    <dc:date>2026-03-01T02:05:09.842402</dc:date>
    <dc:format>image/svg+xml</dc:format>
    <dc:creator>
     <cc:Agent>
      <dc:title>Matplotlib v3.10.8, https://matplotlib.org/</dc:title>
     </cc:Agent>
    </dc:creator>
   </cc:Work>
  </rdf:RDF>
 </metadata>
 <defs>
  <style type="text/css">*{stroke-linejoin: round; stroke-linecap: butt}</style>
 </defs>
 <g id="figure_1">
  <g id="patch_1">
   <path d="M 0 856.042031 
L 568.757812 856.042031 
L 568.757812 0 
L 0 0 
z
" style="fill: #ffffff"/>
  </g>
  <g id="axes_1">
   <g id="patch_2">
    <path d="M 115.857812 817.517969 
L 561.557812 817.517969 
L 561.557812 23.077969 
L 115.857812 23.077969 
z
" style="fill: #ffffff"/>
   </g>
   <g id="patch_3">
    <path d="M 302.572593 781.40706 
L 312.506711 781.40706 
L 312.506711 775.893944 
L 302.572593 775.893944 
z
" clip-path="url(#p4e04eba47e)" style="fill: #4682b4"/>
   </g>
   <g id="patch_4">
    <path d="M 302.572593 759.354596 
L 373.745056 759.354596 
L 373.745056 753.84148 
L 302.572593 753.84148 
z
" clip-path="url(#p4e04eba47e)" style="fill: #4682b4"/>
   </g>
   <g id="patch_5">
    <path d="M 302.572593 737.302133 
L 273.137287 737.302133 
L 273.137287 731.789017 
L 302.572593 731.789017 
z
" clip-path="url(#p4e04eba47e)" style="fill: #4682b4"/>
   </g>
   <g id="patch_6">
    <path d="M 302.572593 715.249669 
L 408.503157 715.249669 
L 408.503157 709.736553 
L 302.572593 709.736553 
z
" clip-path="url(#p4e04eba47e)" style="fill: #4682b4"/>
   </g>
   <g id="patch_7">
    <path d="M 302.572593 693.197205 
L 403.541728 693.197205 
L 403.541728 687.684089 
L 302.572593 687.684089 
z
" clip-path="url(#p4e04eba47e)" style="fill: #4682b4"/>
   </g>
   <g id="patch_8">
    <path d="M 302.572593 671.144742 
L 302.572593 671.144742 
L 302.572593 665.631626 
L 302.572593 665.631626 
z
" clip-path="url(#p4e04eba47e)" style="fill: #4682b4"/>
   </g>
   <g id="patch_9">
    <path d="M 302.572593 649.092278 
L 261.93998 649.092278 
L 261.93998 643.579162 
L 302.572593 643.579162 
z
" clip-path="url(#p4e04eba47e)" style="fill: #4682b4"/>
   </g>
   <g id="patch_10">
    <path d="M 302.572593 627.039815 
L 273.171794 627.039815 
L 273.171794 621.526699 
L 302.572593 621.526699 
z
" clip-path="url(#p4e04eba47e)" style="fill: #4682b4"/>
   </g>
   <g id="patch_11">
    <path d="M 302.572593 604.987351 
L 329.945412 604.987351 
L 329.945412 599.474235 
L 302.572593 599.474235 
z
" clip-path="url(#p4e04eba47e)" style="fill: #4682b4"/>
   </g>
   <g id="patch_12">
    <path d="M 302.572593 582.934888 
L 387.457697 582.934888 
L 387.457697 577.421772 
L 302.572593 577.421772 
z
" clip-path="url(#p4e04eba47e)" style="fill: #4682b4"/>
   </g>
   <g id="patch_13">
    <path d="M 302.572593 560.882424 
L 171.984221 560.882424 
L 171.984221 555.369308 
L 302.572593 555.369308 
z
" clip-path="url(#p4e04eba47e)" style="fill: #4682b4"/>
   </g>
   <g id="patch_14">
    <path d="M 302.572593 538.82996 
L 212.960504 538.82996 
L 212.960504 533.316845 
L 302.572593 533.316845 
z
" clip-path="url(#p4e04eba47e)" style="fill: #4682b4"/>
   </g>
   <g id="patch_15">
    <path d="M 302.572593 516.777497 
L 433.901843 516.777497 
L 433.901843 511.264381 
L 302.572593 511.264381 
z
" clip-path="url(#p4e04eba47e)" style="fill: #4682b4"/>
   </g>
   <g id="patch_16">
    <path d="M 302.572593 494.725033 
L 270.606291 494.725033 
L 270.606291 489.211917 
L 302.572593 489.211917 
z
" clip-path="url(#p4e04eba47e)" style="fill: #4682b4"/>
   </g>
   <g id="patch_17">
    <path d="M 302.572593 472.67257 
L 422.22961 472.67257 
L 422.22961 467.159454 
L 302.572593 467.159454 
z
" clip-path="url(#p4e04eba47e)" style="fill: #4682b4"/>
   </g>
   <g id="patch_18">
    <path d="M 302.572593 450.620106 
L 208.859383 450.620106 
L 208.859383 445.10699 
L 302.572593 445.10699 
z
" clip-path="url(#p4e04eba47e)" style="fill: #4682b4"/>
   </g>
   <g id="patch_19">
    <path d="M 302.572593 428.567643 
L 187.783841 428.567643 
L 187.783841 423.054527 
L 302.572593 423.054527 
z
" clip-path="url(#p4e04eba47e)" style="fill: #4682b4"/>
   </g>
   <g id="patch_20">
    <path d="M 302.572593 406.515179 
L 430.592937 406.515179 
L 430.592937 401.002063 
L 302.572593 401.002063 
z
" clip-path="url(#p4e04eba47e)" style="fill: #4682b4"/>
   </g>
   <g id="patch_21">
    <path d="M 302.572593 384.462715 
L 186.853406 384.462715 
L 186.853406 378.9496 
L 302.572593 378.9496 
z
" clip-path="url(#p4e04eba47e)" style="fill: #4682b4"/>
   </g>
   <g id="patch_22">
    <path d="M 302.572593 362.410252 
L 216.41333 362.410252 
L 216.41333 356.897136 
L 302.572593 356.897136 
z
" clip-path="url(#p4e04eba47e)" style="fill: #4682b4"/>
   </g>
   <g id="patch_23">
    <path d="M 302.572593 340.357788 
L 302.572593 340.357788 
L 302.572593 334.844672 
L 302.572593 334.844672 
z
" clip-path="url(#p4e04eba47e)" style="fill: #4682b4"/>
   </g>
   <g id="patch_24">
    <path d="M 302.572593 318.305325 
L 289.606445 318.305325 
L 289.606445 312.792209 
L 302.572593 312.792209 
z
" clip-path="url(#p4e04eba47e)" style="fill: #4682b4"/>
   </g>
   <g id="patch_25">
    <path d="M 302.572593 296.252861 
L 361.542725 296.252861 
L 361.542725 290.739745 
L 302.572593 290.739745 
z
" clip-path="url(#p4e04eba47e)" style="fill: #4682b4"/>
   </g>
   <g id="patch_26">
    <path d="M 302.572593 274.200398 
L 210.371615 274.200398 
L 210.371615 268.687282 
L 302.572593 268.687282 
z
" clip-path="url(#p4e04eba47e)" style="fill: #4682b4"/>
   </g>
   <g id="patch_27">
    <path d="M 302.572593 252.147934 
L 272.768465 252.147934 
L 272.768465 246.634818 
L 302.572593 246.634818 
z
" clip-path="url(#p4e04eba47e)" style="fill: #4682b4"/>
   </g>
   <g id="patch_28">
    <path d="M 302.572593 230.09547 
L 210.860401 230.09547 
L 210.860401 224.582355 
L 302.572593 224.582355 
z
" clip-path="url(#p4e04eba47e)" style="fill: #4682b4"/>
   </g>
   <g id="patch_29">
    <path d="M 302.572593 208.043007 
L 336.945441 208.043007 
L 336.945441 202.529891 
L 302.572593 202.529891 
z
" clip-path="url(#p4e04eba47e)" style="fill: #4682b4"/>
   </g>
   <g id="patch_30">
    <path d="M 302.572593 185.990543 
L 307.32959 185.990543 
L 307.32959 180.477427 
L 302.572593 180.477427 
z
" clip-path="url(#p4e04eba47e)" style="fill: #4682b4"/>
   </g>
   <g id="patch_31">
    <path d="M 302.572593 163.93808 
L 194.423463 163.93808 
L 194.423463 158.424964 
L 302.572593 158.424964 
z
" clip-path="url(#p4e04eba47e)" style="fill: #4682b4"/>
   </g>
   <g id="patch_32">
    <path d="M 302.572593 141.885616 
L 231.861154 141.885616 
L 231.861154 136.3725 
L 302.572593 136.3725 
z
" clip-path="url(#p4e04eba47e)" style="fill: #4682b4"/>
   </g>
   <g id="patch_33">
    <path d="M 302.572593 119.833153 
L 389.725823 119.833153 
L 389.725823 114.320037 
L 302.572593 114.320037 
z
" clip-path="url(#p4e04eba47e)" style="fill: #4682b4"/>
   </g>
   <g id="patch_34">
    <path d="M 302.572593 97.780689 
L 302.572593 97.780689 
L 302.572593 92.267573 
L 302.572593 92.267573 
z
" clip-path="url(#p4e04eba47e)" style="fill: #4682b4"/>
   </g>
   <g id="patch_35">
    <path d="M 302.572593 75.728226 
L 188.877068 75.728226 
L 188.877068 70.21511 
L 302.572593 70.21511 
z
" clip-path="url(#p4e04eba47e)" style="fill: #4682b4"/>
   </g>
   <g id="patch_36">
    <path d="M 302.572593 775.893944 
L 302.572593 775.893944 
L 302.572593 770.380828 
L 302.572593 770.380828 
z
" clip-path="url(#p4e04eba47e)" style="fill: #b22222"/>
   </g>
   <g id="patch_37">
    <path d="M 302.572593 753.84148 
L 405.61484 753.84148 
L 405.61484 748.328364 
L 302.572593 748.328364 
z
" clip-path="url(#p4e04eba47e)" style="fill: #b22222"/>
   </g>
   <g id="patch_38">
    <path d="M 302.572593 731.789017 
L 401.19388 731.789017 
L 401.19388 726.275901 
L 302.572593 726.275901 
z
" clip-path="url(#p4e04eba47e)" style="fill: #b22222"/>
   </g>
   <g id="patch_39">
    <path d="M 302.572593 709.736553 
L 302.572593 709.736553 
L 302.572593 704.223437 
L 302.572593 704.223437 
z
" clip-path="url(#p4e04eba47e)" style="fill: #b22222"/>
   </g>
   <g id="patch_40">
    <path d="M 302.572593 687.684089 
L 410.653529 687.684089 
L 410.653529 682.170974 
L 302.572593 682.170974 
z
" clip-path="url(#p4e04eba47e)" style="fill: #b22222"/>
   </g>
   <g id="patch_41">
    <path d="M 302.572593 665.631626 
L 409.366511 665.631626 
L 409.366511 660.11851 
L 302.572593 660.11851 
z
" clip-path="url(#p4e04eba47e)" style="fill: #b22222"/>
   </g>
   <g id="patch_42">
    <path d="M 302.572593 643.579162 
L 399.882807 643.579162 
L 399.882807 638.066046 
L 302.572593 638.066046 
z
" clip-path="url(#p4e04eba47e)" style="fill: #b22222"/>
   </g>
   <g id="patch_43">
    <path d="M 302.572593 621.526699 
L 399.539281 621.526699 
L 399.539281 616.013583 
L 302.572593 616.013583 
z
" clip-path="url(#p4e04eba47e)" style="fill: #b22222"/>
   </g>
   <g id="patch_44">
    <path d="M 302.572593 599.474235 
L 418.613376 599.474235 
L 418.613376 593.961119 
L 302.572593 593.961119 
z
" clip-path="url(#p4e04eba47e)" style="fill: #b22222"/>
   </g>
   <g id="patch_45">
    <path d="M 302.572593 577.421772 
L 432.563626 577.421772 
L 432.563626 571.908656 
L 302.572593 571.908656 
z
" clip-path="url(#p4e04eba47e)" style="fill: #b22222"/>
   </g>
   <g id="patch_46">
    <path d="M 302.572593 555.369308 
L 302.572593 555.369308 
L 302.572593 549.856192 
L 302.572593 549.856192 
z
" clip-path="url(#p4e04eba47e)" style="fill: #b22222"/>
   </g>
   <g id="patch_47">
    <path d="M 302.572593 533.316845 
L 423.075196 533.316845 
L 423.075196 527.803729 
L 302.572593 527.803729 
z
" clip-path="url(#p4e04eba47e)" style="fill: #b22222"/>
   </g>
   <g id="patch_48">
    <path d="M 302.572593 511.264381 
L 431.335138 511.264381 
L 431.335138 505.751265 
L 302.572593 505.751265 
z
" clip-path="url(#p4e04eba47e)" style="fill: #b22222"/>
   </g>
   <g id="patch_49">
    <path d="M 302.572593 489.211917 
L 394.020462 489.211917 
L 394.020462 483.698802 
L 302.572593 483.698802 
z
" clip-path="url(#p4e04eba47e)" style="fill: #b22222"/>
   </g>
   <g id="patch_50">
    <path d="M 302.572593 467.159454 
L 440.741347 467.159454 
L 440.741347 461.646338 
L 302.572593 461.646338 
z
" clip-path="url(#p4e04eba47e)" style="fill: #b22222"/>
   </g>
   <g id="patch_51">
    <path d="M 302.572593 445.10699 
L 390.321453 445.10699 
L 390.321453 439.593874 
L 302.572593 439.593874 
z
" clip-path="url(#p4e04eba47e)" style="fill: #b22222"/>
   </g>
   <g id="patch_52">
    <path d="M 302.572593 423.054527 
L 364.092506 423.054527 
L 364.092506 417.541411 
L 302.572593 417.541411 
z
" clip-path="url(#p4e04eba47e)" style="fill: #b22222"/>
   </g>
   <g id="patch_53">
    <path d="M 302.572593 401.002063 
L 449.86908 401.002063 
L 449.86908 395.488947 
L 302.572593 395.488947 
z
" clip-path="url(#p4e04eba47e)" style="fill: #b22222"/>
   </g>
   <g id="patch_54">
    <path d="M 302.572593 378.9496 
L 429.940293 378.9496 
L 429.940293 373.436484 
L 302.572593 373.436484 
z
" clip-path="url(#p4e04eba47e)" style="fill: #b22222"/>
   </g>
   <g id="patch_55">
    <path d="M 302.572593 356.897136 
L 425.388959 356.897136 
L 425.388959 351.38402 
L 302.572593 351.38402 
z
" clip-path="url(#p4e04eba47e)" style="fill: #b22222"/>
   </g>
   <g id="patch_56">
    <path d="M 302.572593 334.844672 
L 422.708389 334.844672 
L 422.708389 329.331557 
L 302.572593 329.331557 
z
" clip-path="url(#p4e04eba47e)" style="fill: #b22222"/>
   </g>
   <g id="patch_57">
    <path d="M 302.572593 312.792209 
L 302.572593 312.792209 
L 302.572593 307.279093 
L 302.572593 307.279093 
z
" clip-path="url(#p4e04eba47e)" style="fill: #b22222"/>
   </g>
   <g id="patch_58">
    <path d="M 302.572593 290.739745 
L 469.703782 290.739745 
L 469.703782 285.226629 
L 302.572593 285.226629 
z
" clip-path="url(#p4e04eba47e)" style="fill: #b22222"/>
   </g>
   <g id="patch_59">
    <path d="M 302.572593 268.687282 
L 445.548958 268.687282 
L 445.548958 263.174166 
L 302.572593 263.174166 
z
" clip-path="url(#p4e04eba47e)" style="fill: #b22222"/>
   </g>
   <g id="patch_60">
    <path d="M 302.572593 246.634818 
L 474.317983 246.634818 
L 474.317983 241.121702 
L 302.572593 241.121702 
z
" clip-path="url(#p4e04eba47e)" style="fill: #b22222"/>
   </g>
   <g id="patch_61">
    <path d="M 302.572593 224.582355 
L 440.141002 224.582355 
L 440.141002 219.069239 
L 302.572593 219.069239 
z
" clip-path="url(#p4e04eba47e)" style="fill: #b22222"/>
   </g>
   <g id="patch_62">
    <path d="M 302.572593 202.529891 
L 494.205336 202.529891 
L 494.205336 197.016775 
L 302.572593 197.016775 
z
" clip-path="url(#p4e04eba47e)" style="fill: #b22222"/>
   </g>
   <g id="patch_63">
    <path d="M 302.572593 180.477427 
L 503.182584 180.477427 
L 503.182584 174.964312 
L 302.572593 174.964312 
z
" clip-path="url(#p4e04eba47e)" style="fill: #b22222"/>
   </g>
   <g id="patch_64">
    <path d="M 302.572593 158.424964 
L 477.455818 158.424964 
L 477.455818 152.911848 
L 302.572593 152.911848 
z
" clip-path="url(#p4e04eba47e)" style="fill: #b22222"/>
   </g>
   <g id="patch_65">
    <path d="M 302.572593 136.3725 
L 484.463273 136.3725 
L 484.463273 130.859384 
L 302.572593 130.859384 
z
" clip-path="url(#p4e04eba47e)" style="fill: #b22222"/>
   </g>
   <g id="patch_66">
    <path d="M 302.572593 114.320037 
L 509.636347 114.320037 
L 509.636347 108.806921 
L 302.572593 108.806921 
z
" clip-path="url(#p4e04eba47e)" style="fill: #b22222"/>
   </g>
   <g id="patch_67">
    <path d="M 302.572593 92.267573 
L 457.653622 92.267573 
L 457.653622 86.754457 
L 302.572593 86.754457 
z
" clip-path="url(#p4e04eba47e)" style="fill: #b22222"/>
   </g>
   <g id="patch_68">
    <path d="M 302.572593 70.21511 
L 498.159401 70.21511 
L 498.159401 64.701994 
L 302.572593 64.701994 
z
" clip-path="url(#p4e04eba47e)" style="fill: #b22222"/>
   </g>
   <g id="patch_69">
    <path d="M 302.572593 770.380828 
L 302.572593 770.380828 
L 302.572593 764.867712 
L 302.572593 764.867712 
z
" clip-path="url(#p4e04eba47e)" style="fill: #daa520"/>
   </g>
   <g id="patch_70">
    <path d="M 302.572593 748.328364 
L 302.572593 748.328364 
L 302.572593 742.815248 
L 302.572593 742.815248 
z
" clip-path="url(#p4e04eba47e)" style="fill: #daa520"/>
   </g>
   <g id="patch_71">
    <path d="M 302.572593 726.275901 
L 407.812803 726.275901 
L 407.812803 720.762785 
L 302.572593 720.762785 
z
" clip-path="url(#p4e04eba47e)" style="fill: #daa520"/>
   </g>
   <g id="patch_72">
    <path d="M 302.572593 704.223437 
L 302.572593 704.223437 
L 302.572593 698.710321 
L 302.572593 698.710321 
z
" clip-path="url(#p4e04eba47e)" style="fill: #daa520"/>
   </g>
   <g id="patch_73">
    <path d="M 302.572593 682.170974 
L 404.019186 682.170974 
L 404.019186 676.657858 
L 302.572593 676.657858 
z
" clip-path="url(#p4e04eba47e)" style="fill: #daa520"/>
   </g>
   <g id="patch_74">
    <path d="M 302.572593 660.11851 
L 412.588403 660.11851 
L 412.588403 654.605394 
L 302.572593 654.605394 
z
" clip-path="url(#p4e04eba47e)" style="fill: #daa520"/>
   </g>
   <g id="patch_75">
    <path d="M 302.572593 638.066046 
L 412.781835 638.066046 
L 412.781835 632.552931 
L 302.572593 632.552931 
z
" clip-path="url(#p4e04eba47e)" style="fill: #daa520"/>
   </g>
   <g id="patch_76">
    <path d="M 302.572593 616.013583 
L 418.246721 616.013583 
L 418.246721 610.500467 
L 302.572593 610.500467 
z
" clip-path="url(#p4e04eba47e)" style="fill: #daa520"/>
   </g>
   <g id="patch_77">
    <path d="M 302.572593 593.961119 
L 355.573489 593.961119 
L 355.573489 588.448003 
L 302.572593 588.448003 
z
" clip-path="url(#p4e04eba47e)" style="fill: #daa520"/>
   </g>
   <g id="patch_78">
    <path d="M 302.572593 571.908656 
L 222.380869 571.908656 
L 222.380869 566.39554 
L 302.572593 566.39554 
z
" clip-path="url(#p4e04eba47e)" style="fill: #daa520"/>
   </g>
   <g id="patch_79">
    <path d="M 302.572593 549.856192 
L 302.572593 549.856192 
L 302.572593 544.343076 
L 302.572593 544.343076 
z
" clip-path="url(#p4e04eba47e)" style="fill: #daa520"/>
   </g>
   <g id="patch_80">
    <path d="M 302.572593 527.803729 
L 433.817782 527.803729 
L 433.817782 522.290613 
L 302.572593 522.290613 
z
" clip-path="url(#p4e04eba47e)" style="fill: #daa520"/>
   </g>
   <g id="patch_81">
    <path d="M 302.572593 505.751265 
L 194.403333 505.751265 
L 194.403333 500.238149 
L 302.572593 500.238149 
z
" clip-path="url(#p4e04eba47e)" style="fill: #daa520"/>
   </g>
   <g id="patch_82">
    <path d="M 302.572593 483.698802 
L 433.949211 483.698802 
L 433.949211 478.185686 
L 302.572593 478.185686 
z
" clip-path="url(#p4e04eba47e)" style="fill: #daa520"/>
   </g>
   <g id="patch_83">
    <path d="M 302.572593 461.646338 
L 237.258338 461.646338 
L 237.258338 456.133222 
L 302.572593 456.133222 
z
" clip-path="url(#p4e04eba47e)" style="fill: #daa520"/>
   </g>
   <g id="patch_84">
    <path d="M 302.572593 439.593874 
L 444.145918 439.593874 
L 444.145918 434.080758 
L 302.572593 434.080758 
z
" clip-path="url(#p4e04eba47e)" style="fill: #daa520"/>
   </g>
   <g id="patch_85">
    <path d="M 302.572593 417.541411 
L 449.166132 417.541411 
L 449.166132 412.028295 
L 302.572593 412.028295 
z
" clip-path="url(#p4e04eba47e)" style="fill: #daa520"/>
   </g>
   <g id="patch_86">
    <path d="M 302.572593 395.488947 
L 204.282731 395.488947 
L 204.282731 389.975831 
L 302.572593 389.975831 
z
" clip-path="url(#p4e04eba47e)" style="fill: #daa520"/>
   </g>
   <g id="patch_87">
    <path d="M 302.572593 373.436484 
L 452.610952 373.436484 
L 452.610952 367.923368 
L 302.572593 367.923368 
z
" clip-path="url(#p4e04eba47e)" style="fill: #daa520"/>
   </g>
   <g id="patch_88">
    <path d="M 302.572593 351.38402 
L 461.79918 351.38402 
L 461.79918 345.870904 
L 302.572593 345.870904 
z
" clip-path="url(#p4e04eba47e)" style="fill: #daa520"/>
   </g>
   <g id="patch_89">
    <path d="M 302.572593 329.331557 
L 464.52386 329.331557 
L 464.52386 323.818441 
L 302.572593 323.818441 
z
" clip-path="url(#p4e04eba47e)" style="fill: #daa520"/>
   </g>
   <g id="patch_90">
    <path d="M 302.572593 307.279093 
L 136.116903 307.279093 
L 136.116903 301.765977 
L 302.572593 301.765977 
z
" clip-path="url(#p4e04eba47e)" style="fill: #daa520"/>
   </g>
   <g id="patch_91">
    <path d="M 302.572593 285.226629 
L 469.664508 285.226629 
L 469.664508 279.713514 
L 302.572593 279.713514 
z
" clip-path="url(#p4e04eba47e)" style="fill: #daa520"/>
   </g>
   <g id="patch_92">
    <path d="M 302.572593 263.174166 
L 471.834424 263.174166 
L 471.834424 257.66105 
L 302.572593 257.66105 
z
" clip-path="url(#p4e04eba47e)" style="fill: #daa520"/>
   </g>
   <g id="patch_93">
    <path d="M 302.572593 241.121702 
L 488.347127 241.121702 
L 488.347127 235.608586 
L 302.572593 235.608586 
z
" clip-path="url(#p4e04eba47e)" style="fill: #daa520"/>
   </g>
   <g id="patch_94">
    <path d="M 302.572593 219.069239 
L 490.884569 219.069239 
L 490.884569 213.556123 
L 302.572593 213.556123 
z
" clip-path="url(#p4e04eba47e)" style="fill: #daa520"/>
   </g>
   <g id="patch_95">
    <path d="M 302.572593 197.016775 
L 460.722974 197.016775 
L 460.722974 191.503659 
L 302.572593 191.503659 
z
" clip-path="url(#p4e04eba47e)" style="fill: #daa520"/>
   </g>
   <g id="patch_96">
    <path d="M 302.572593 174.964312 
L 500.726513 174.964312 
L 500.726513 169.451196 
L 302.572593 169.451196 
z
" clip-path="url(#p4e04eba47e)" style="fill: #daa520"/>
   </g>
   <g id="patch_97">
    <path d="M 302.572593 152.911848 
L 503.639498 152.911848 
L 503.639498 147.398732 
L 302.572593 147.398732 
z
" clip-path="url(#p4e04eba47e)" style="fill: #daa520"/>
   </g>
   <g id="patch_98">
    <path d="M 302.572593 130.859384 
L 506.885495 130.859384 
L 506.885495 125.346269 
L 302.572593 125.346269 
z
" clip-path="url(#p4e04eba47e)" style="fill: #daa520"/>
   </g>
   <g id="patch_99">
    <path d="M 302.572593 108.806921 
L 493.169656 108.806921 
L 493.169656 103.293805 
L 302.572593 103.293805 
z
" clip-path="url(#p4e04eba47e)" style="fill: #daa520"/>
   </g>
   <g id="patch_100">
    <path d="M 302.572593 86.754457 
L 513.683056 86.754457 
L 513.683056 81.241341 
L 302.572593 81.241341 
z
" clip-path="url(#p4e04eba47e)" style="fill: #daa520"/>
   </g>
   <g id="patch_101">
    <path d="M 302.572593 64.701994 
L 541.298722 64.701994 
L 541.298722 59.188878 
L 302.572593 59.188878 
z
" clip-path="url(#p4e04eba47e)" style="fill: #daa520"/>
   </g>
   <g id="matplotlib.axis_1">
    <g id="xtick_1">
     <g id="line2d_1">
      <defs>
       <path id="m4cf9157089" d="M 0 0 
L 0 3.5 
" style="stroke: #000000; stroke-width: 0.8"/>
      </defs>
      <g>
       <use xlink:href="#m4cf9157089" x="151.564876" y="817.517969" style="stroke: #000000; stroke-width: 0.8"/>
      </g>
     </g>
     <g id="text_1">
      <!-- −4 -->
      <g transform="translate(144.193782 832.116406) scale(0.1 -0.1)">
       <defs>
        <path id="DejaVuSans-2212" d="M 678 2272 
L 4684 2272 
L 4684 1741 
L 678 1741 
L 678 2272 
z
" transform="scale(0.015625)"/>
        <path id="DejaVuSans-34" d="M 2419 4116 
L 825 1625 
L 2419 1625 
L 2419 4116 
z
M 2253 4666 
L 3047 4666 
L 3047 1625 
L 3713 1625 
L 3713 1100 
L 3047 1100 
L 3047 0 
L 2419 0 
L 2419 1100 
L 313 1100 
L 313 1709 
L 2253 4666 
z
" transform="scale(0.015625)"/>
       </defs>
       <use xlink:href="#DejaVuSans-2212"/>
       <use xlink:href="#DejaVuSans-34" transform="translate(83.789062 0)"/>
      </g>
     </g>
    </g>
    <g id="xtick_2">
     <g id="line2d_2">
      <g>
       <use xlink:href="#m4cf9157089" x="227.068735" y="817.517969" style="stroke: #000000; stroke-width: 0.8"/>
      </g>
     </g>
     <g id="text_2">
      <!-- −2 -->
      <g transform="translate(219.697641 832.116406) scale(0.1 -0.1)">
       <defs>
        <path id="DejaVuSans-32" d="M 1228 531 
L 3431 531 
L 3431 0 
L 469 0 
L 469 531 
Q 828 903 1448 1529 
Q 2069 2156 2228 2338 
Q 2531 2678 2651 2914 
Q 2772 3150 2772 3378 
Q 2772 3750 2511 3984 
Q 2250 4219 1831 4219 
Q 1534 4219 1204 4116 
Q 875 4013 500 3803 
L 500 4441 
Q 881 4594 1212 4672 
Q 1544 4750 1819 4750 
Q 2544 4750 2975 4387 
Q 3406 4025 3406 3419 
Q 3406 3131 3298 2873 
Q 3191 2616 2906 2266 
Q 2828 2175 2409 1742 
Q 1991 1309 1228 531 
z
" transform="scale(0.015625)"/>
       </defs>
       <use xlink:href="#DejaVuSans-2212"/>
       <use xlink:href="#DejaVuSans-32" transform="translate(83.789062 0)"/>
      </g>
     </g>
    </g>
    <g id="xtick_3">
     <g id="line2d_3">
      <g>
       <use xlink:href="#m4cf9157089" x="302.572593" y="817.517969" style="stroke: #000000; stroke-width: 0.8"/>
      </g>
     </g>
     <g id="text_3">
      <!-- 0 -->
      <g transform="translate(299.391343 832.116406) scale(0.1 -0.1)">
       <defs>
        <path id="DejaVuSans-30" d="M 2034 4250 
Q 1547 4250 1301 3770 
Q 1056 3291 1056 2328 
Q 1056 1369 1301 889 
Q 1547 409 2034 409 
Q 2525 409 2770 889 
Q 3016 1369 3016 2328 
Q 3016 3291 2770 3770 
Q 2525 4250 2034 4250 
z
M 2034 4750 
Q 2819 4750 3233 4129 
Q 3647 3509 3647 2328 
Q 3647 1150 3233 529 
Q 2819 -91 2034 -91 
Q 1250 -91 836 529 
Q 422 1150 422 2328 
Q 422 3509 836 4129 
Q 1250 4750 2034 4750 
z
" transform="scale(0.015625)"/>
       </defs>
       <use xlink:href="#DejaVuSans-30"/>
      </g>
     </g>
    </g>
    <g id="xtick_4">
     <g id="line2d_4">
      <g>
       <use xlink:href="#m4cf9157089" x="378.076452" y="817.517969" style="stroke: #000000; stroke-width: 0.8"/>
      </g>
     </g>
     <g id="text_4">
      <!-- 2 -->
      <g transform="translate(374.895202 832.116406) scale(0.1 -0.1)">
       <use xlink:href="#DejaVuSans-32"/>
      </g>
     </g>
    </g>
    <g id="xtick_5">
     <g id="line2d_5">
      <g>
       <use xlink:href="#m4cf9157089" x="453.580311" y="817.517969" style="stroke: #000000; stroke-width: 0.8"/>
      </g>
     </g>
     <g id="text_5">
      <!-- 4 -->
      <g transform="translate(450.399061 832.116406) scale(0.1 -0.1)">
       <use xlink:href="#DejaVuSans-34"/>
      </g>
     </g>
    </g>
    <g id="xtick_6">
     <g id="line2d_6">
      <g>
       <use xlink:href="#m4cf9157089" x="529.08417" y="817.517969" style="stroke: #000000; stroke-width: 0.8"/>
      </g>
     </g>
     <g id="text_6">
      <!-- 6 -->
      <g transform="translate(525.90292 832.116406) scale(0.1 -0.1)">
       <defs>
        <path id="DejaVuSans-36" d="M 2113 2584 
Q 1688 2584 1439 2293 
Q 1191 2003 1191 1497 
Q 1191 994 1439 701 
Q 1688 409 2113 409 
Q 2538 409 2786 701 
Q 3034 994 3034 1497 
Q 3034 2003 2786 2293 
Q 2538 2584 2113 2584 
z
M 3366 4563 
L 3366 3988 
Q 3128 4100 2886 4159 
Q 2644 4219 2406 4219 
Q 1781 4219 1451 3797 
Q 1122 3375 1075 2522 
Q 1259 2794 1537 2939 
Q 1816 3084 2150 3084 
Q 2853 3084 3261 2657 
Q 3669 2231 3669 1497 
Q 3669 778 3244 343 
Q 2819 -91 2113 -91 
Q 1303 -91 875 529 
Q 447 1150 447 2328 
Q 447 3434 972 4092 
Q 1497 4750 2381 4750 
Q 2619 4750 2861 4703 
Q 3103 4656 3366 4563 
z
" transform="scale(0.015625)"/>
       </defs>
       <use xlink:href="#DejaVuSans-36"/>
      </g>
     </g>
    </g>
    <g id="text_7">
     <!-- Mean log2FC (significant neighborhoods) -->
     <g transform="translate(225.929453 846.554375) scale(0.11 -0.11)">
      <defs>
       <path id="DejaVuSans-4d" d="M 628 4666 
L 1569 4666 
L 2759 1491 
L 3956 4666 
L 4897 4666 
L 4897 0 
L 4281 0 
L 4281 4097 
L 3078 897 
L 2444 897 
L 1241 4097 
L 1241 0 
L 628 0 
L 628 4666 
z
" transform="scale(0.015625)"/>
       <path id="DejaVuSans-65" d="M 3597 1894 
L 3597 1613 
L 953 1613 
Q 991 1019 1311 708 
Q 1631 397 2203 397 
Q 2534 397 2845 478 
Q 3156 559 3463 722 
L 3463 178 
Q 3153 47 2828 -22 
Q 2503 -91 2169 -91 
Q 1331 -91 842 396 
Q 353 884 353 1716 
Q 353 2575 817 3079 
Q 1281 3584 2069 3584 
Q 2775 3584 3186 3129 
Q 3597 2675 3597 1894 
z
M 3022 2063 
Q 3016 2534 2758 2815 
Q 2500 3097 2075 3097 
Q 1594 3097 1305 2825 
Q 1016 2553 972 2059 
L 3022 2063 
z
" transform="scale(0.015625)"/>
       <path id="DejaVuSans-61" d="M 2194 1759 
Q 1497 1759 1228 1600 
Q 959 1441 959 1056 
Q 959 750 1161 570 
Q 1363 391 1709 391 
Q 2188 391 2477 730 
Q 2766 1069 2766 1631 
L 2766 1759 
L 2194 1759 
z
M 3341 1997 
L 3341 0 
L 2766 0 
L 2766 531 
Q 2569 213 2275 61 
Q 1981 -91 1556 -91 
Q 1019 -91 701 211 
Q 384 513 384 1019 
Q 384 1609 779 1909 
Q 1175 2209 1959 2209 
L 2766 2209 
L 2766 2266 
Q 2766 2663 2505 2880 
Q 2244 3097 1772 3097 
Q 1472 3097 1187 3025 
Q 903 2953 641 2809 
L 641 3341 
Q 956 3463 1253 3523 
Q 1550 3584 1831 3584 
Q 2591 3584 2966 3190 
Q 3341 2797 3341 1997 
z
" transform="scale(0.015625)"/>
       <path id="DejaVuSans-6e" d="M 3513 2113 
L 3513 0 
L 2938 0 
L 2938 2094 
Q 2938 2591 2744 2837 
Q 2550 3084 2163 3084 
Q 1697 3084 1428 2787 
Q 1159 2491 1159 1978 
L 1159 0 
L 581 0 
L 581 3500 
L 1159 3500 
L 1159 2956 
Q 1366 3272 1645 3428 
Q 1925 3584 2291 3584 
Q 2894 3584 3203 3211 
Q 3513 2838 3513 2113 
z
" transform="scale(0.015625)"/>
       <path id="DejaVuSans-20" transform="scale(0.015625)"/>
       <path id="DejaVuSans-6c" d="M 603 4863 
L 1178 4863 
L 1178 0 
L 603 0 
L 603 4863 
z
" transform="scale(0.015625)"/>
       <path id="DejaVuSans-6f" d="M 1959 3097 
Q 1497 3097 1228 2736 
Q 959 2375 959 1747 
Q 959 1119 1226 758 
Q 1494 397 1959 397 
Q 2419 397 2687 759 
Q 2956 1122 2956 1747 
Q 2956 2369 2687 2733 
Q 2419 3097 1959 3097 
z
M 1959 3584 
Q 2709 3584 3137 3096 
Q 3566 2609 3566 1747 
Q 3566 888 3137 398 
Q 2709 -91 1959 -91 
Q 1206 -91 779 398 
Q 353 888 353 1747 
Q 353 2609 779 3096 
Q 1206 3584 1959 3584 
z
" transform="scale(0.015625)"/>
       <path id="DejaVuSans-67" d="M 2906 1791 
Q 2906 2416 2648 2759 
Q 2391 3103 1925 3103 
Q 1463 3103 1205 2759 
Q 947 2416 947 1791 
Q 947 1169 1205 825 
Q 1463 481 1925 481 
Q 2391 481 2648 825 
Q 2906 1169 2906 1791 
z
M 3481 434 
Q 3481 -459 3084 -895 
Q 2688 -1331 1869 -1331 
Q 1566 -1331 1297 -1286 
Q 1028 -1241 775 -1147 
L 775 -588 
Q 1028 -725 1275 -790 
Q 1522 -856 1778 -856 
Q 2344 -856 2625 -561 
Q 2906 -266 2906 331 
L 2906 616 
Q 2728 306 2450 153 
Q 2172 0 1784 0 
Q 1141 0 747 490 
Q 353 981 353 1791 
Q 353 2603 747 3093 
Q 1141 3584 1784 3584 
Q 2172 3584 2450 3431 
Q 2728 3278 2906 2969 
L 2906 3500 
L 3481 3500 
L 3481 434 
z
" transform="scale(0.015625)"/>
       <path id="DejaVuSans-46" d="M 628 4666 
L 3309 4666 
L 3309 4134 
L 1259 4134 
L 1259 2759 
L 3109 2759 
L 3109 2228 
L 1259 2228 
L 1259 0 
L 628 0 
L 628 4666 
z
" transform="scale(0.015625)"/>
       <path id="DejaVuSans-43" d="M 4122 4306 
L 4122 3641 
Q 3803 3938 3442 4084 
Q 3081 4231 2675 4231 
Q 1875 4231 1450 3742 
Q 1025 3253 1025 2328 
Q 1025 1406 1450 917 
Q 1875 428 2675 428 
Q 3081 428 3442 575 
Q 3803 722 4122 1019 
L 4122 359 
Q 3791 134 3420 21 
Q 3050 -91 2638 -91 
Q 1578 -91 968 557 
Q 359 1206 359 2328 
Q 359 3453 968 4101 
Q 1578 4750 2638 4750 
Q 3056 4750 3426 4639 
Q 3797 4528 4122 4306 
z
" transform="scale(0.015625)"/>
       <path id="DejaVuSans-28" d="M 1984 4856 
Q 1566 4138 1362 3434 
Q 1159 2731 1159 2009 
Q 1159 1288 1364 580 
Q 1569 -128 1984 -844 
L 1484 -844 
Q 1016 -109 783 600 
Q 550 1309 550 2009 
Q 550 2706 781 3412 
Q 1013 4119 1484 4856 
L 1984 4856 
z
" transform="scale(0.015625)"/>
       <path id="DejaVuSans-73" d="M 2834 3397 
L 2834 2853 
Q 2591 2978 2328 3040 
Q 2066 3103 1784 3103 
Q 1356 3103 1142 2972 
Q 928 2841 928 2578 
Q 928 2378 1081 2264 
Q 1234 2150 1697 2047 
L 1894 2003 
Q 2506 1872 2764 1633 
Q 3022 1394 3022 966 
Q 3022 478 2636 193 
Q 2250 -91 1575 -91 
Q 1294 -91 989 -36 
Q 684 19 347 128 
L 347 722 
Q 666 556 975 473 
Q 1284 391 1588 391 
Q 1994 391 2212 530 
Q 2431 669 2431 922 
Q 2431 1156 2273 1281 
Q 2116 1406 1581 1522 
L 1381 1569 
Q 847 1681 609 1914 
Q 372 2147 372 2553 
Q 372 3047 722 3315 
Q 1072 3584 1716 3584 
Q 2034 3584 2315 3537 
Q 2597 3491 2834 3397 
z
" transform="scale(0.015625)"/>
       <path id="DejaVuSans-69" d="M 603 3500 
L 1178 3500 
L 1178 0 
L 603 0 
L 603 3500 
z
M 603 4863 
L 1178 4863 
L 1178 4134 
L 603 4134 
L 603 4863 
z
" transform="scale(0.015625)"/>
       <path id="DejaVuSans-66" d="M 2375 4863 
L 2375 4384 
L 1825 4384 
Q 1516 4384 1395 4259 
Q 1275 4134 1275 3809 
L 1275 3500 
L 2222 3500 
L 2222 3053 
L 1275 3053 
L 1275 0 
L 697 0 
L 697 3053 
L 147 3053 
L 147 3500 
L 697 3500 
L 697 3744 
Q 697 4328 969 4595 
Q 1241 4863 1831 4863 
L 2375 4863 
z
" transform="scale(0.015625)"/>
       <path id="DejaVuSans-63" d="M 3122 3366 
L 3122 2828 
Q 2878 2963 2633 3030 
Q 2388 3097 2138 3097 
Q 1578 3097 1268 2742 
Q 959 2388 959 1747 
Q 959 1106 1268 751 
Q 1578 397 2138 397 
Q 2388 397 2633 464 
Q 2878 531 3122 666 
L 3122 134 
Q 2881 22 2623 -34 
Q 2366 -91 2075 -91 
Q 1284 -91 818 406 
Q 353 903 353 1747 
Q 353 2603 823 3093 
Q 1294 3584 2113 3584 
Q 2378 3584 2631 3529 
Q 2884 3475 3122 3366 
z
" transform="scale(0.015625)"/>
       <path id="DejaVuSans-74" d="M 1172 4494 
L 1172 3500 
L 2356 3500 
L 2356 3053 
L 1172 3053 
L 1172 1153 
Q 1172 725 1289 603 
Q 1406 481 1766 481 
L 2356 481 
L 2356 0 
L 1766 0 
Q 1100 0 847 248 
Q 594 497 594 1153 
L 594 3053 
L 172 3053 
L 172 3500 
L 594 3500 
L 594 4494 
L 1172 4494 
z
" transform="scale(0.015625)"/>
       <path id="DejaVuSans-68" d="M 3513 2113 
L 3513 0 
L 2938 0 
L 2938 2094 
Q 2938 2591 2744 2837 
Q 2550 3084 2163 3084 
Q 1697 3084 1428 2787 
Q 1159 2491 1159 1978 
L 1159 0 
L 581 0 
L 581 4863 
L 1159 4863 
L 1159 2956 
Q 1366 3272 1645 3428 
Q 1925 3584 2291 3584 
Q 2894 3584 3203 3211 
Q 3513 2838 3513 2113 
z
" transform="scale(0.015625)"/>
       <path id="DejaVuSans-62" d="M 3116 1747 
Q 3116 2381 2855 2742 
Q 2594 3103 2138 3103 
Q 1681 3103 1420 2742 
Q 1159 2381 1159 1747 
Q 1159 1113 1420 752 
Q 1681 391 2138 391 
Q 2594 391 2855 752 
Q 3116 1113 3116 1747 
z
M 1159 2969 
Q 1341 3281 1617 3432 
Q 1894 3584 2278 3584 
Q 2916 3584 3314 3078 
Q 3713 2572 3713 1747 
Q 3713 922 3314 415 
Q 2916 -91 2278 -91 
Q 1894 -91 1617 61 
Q 1341 213 1159 525 
L 1159 0 
L 581 0 
L 581 4863 
L 1159 4863 
L 1159 2969 
z
" transform="scale(0.015625)"/>
       <path id="DejaVuSans-72" d="M 2631 2963 
Q 2534 3019 2420 3045 
Q 2306 3072 2169 3072 
Q 1681 3072 1420 2755 
Q 1159 2438 1159 1844 
L 1159 0 
L 581 0 
L 581 3500 
L 1159 3500 
L 1159 2956 
Q 1341 3275 1631 3429 
Q 1922 3584 2338 3584 
Q 2397 3584 2469 3576 
Q 2541 3569 2628 3553 
L 2631 2963 
z
" transform="scale(0.015625)"/>
       <path id="DejaVuSans-64" d="M 2906 2969 
L 2906 4863 
L 3481 4863 
L 3481 0 
L 2906 0 
L 2906 525 
Q 2725 213 2448 61 
Q 2172 -91 1784 -91 
Q 1150 -91 751 415 
Q 353 922 353 1747 
Q 353 2572 751 3078 
Q 1150 3584 1784 3584 
Q 2172 3584 2448 3432 
Q 2725 3281 2906 2969 
z
M 947 1747 
Q 947 1113 1208 752 
Q 1469 391 1925 391 
Q 2381 391 2643 752 
Q 2906 1113 2906 1747 
Q 2906 2381 2643 2742 
Q 2381 3103 1925 3103 
Q 1469 3103 1208 2742 
Q 947 2381 947 1747 
z
" transform="scale(0.015625)"/>
       <path id="DejaVuSans-29" d="M 513 4856 
L 1013 4856 
Q 1481 4119 1714 3412 
Q 1947 2706 1947 2009 
Q 1947 1309 1714 600 
Q 1481 -109 1013 -844 
L 513 -844 
Q 928 -128 1133 580 
Q 1338 1288 1338 2009 
Q 1338 2731 1133 3434 
Q 928 4138 513 4856 
z
" transform="scale(0.015625)"/>
      </defs>
      <use xlink:href="#DejaVuSans-4d"/>
      <use xlink:href="#DejaVuSans-65" transform="translate(86.279297 0)"/>
      <use xlink:href="#DejaVuSans-61" transform="translate(147.802734 0)"/>
      <use xlink:href="#DejaVuSans-6e" transform="translate(209.082031 0)"/>
      <use xlink:href="#DejaVuSans-20" transform="translate(272.460938 0)"/>
      <use xlink:href="#DejaVuSans-6c" transform="translate(304.248047 0)"/>
      <use xlink:href="#DejaVuSans-6f" transform="translate(332.03125 0)"/>
      <use xlink:href="#DejaVuSans-67" transform="translate(393.212891 0)"/>
      <use xlink:href="#DejaVuSans-32" transform="translate(456.689453 0)"/>
      <use xlink:href="#DejaVuSans-46" transform="translate(520.3125 0)"/>
      <use xlink:href="#DejaVuSans-43" transform="translate(577.832031 0)"/>
      <use xlink:href="#DejaVuSans-20" transform="translate(647.65625 0)"/>
      <use xlink:href="#DejaVuSans-28" transform="translate(679.443359 0)"/>
      <use xlink:href="#DejaVuSans-73" transform="translate(718.457031 0)"/>
      <use xlink:href="#DejaVuSans-69" transform="translate(770.556641 0)"/>
      <use xlink:href="#DejaVuSans-67" transform="translate(798.339844 0)"/>
      <use xlink:href="#DejaVuSans-6e" transform="translate(861.816406 0)"/>
      <use xlink:href="#DejaVuSans-69" transform="translate(925.195312 0)"/>
      <use xlink:href="#DejaVuSans-66" transform="translate(952.978516 0)"/>
      <use xlink:href="#DejaVuSans-69" transform="translate(988.183594 0)"/>
      <use xlink:href="#DejaVuSans-63" transform="translate(1015.966797 0)"/>
      <use xlink:href="#DejaVuSans-61" transform="translate(1070.947266 0)"/>
      <use xlink:href="#DejaVuSans-6e" transform="translate(1132.226562 0)"/>
      <use xlink:href="#DejaVuSans-74" transform="translate(1195.605469 0)"/>
      <use xlink:href="#DejaVuSans-20" transform="translate(1234.814453 0)"/>
      <use xlink:href="#DejaVuSans-6e" transform="translate(1266.601562 0)"/>
      <use xlink:href="#DejaVuSans-65" transform="translate(1329.980469 0)"/>
      <use xlink:href="#DejaVuSans-69" transform="translate(1391.503906 0)"/>
      <use xlink:href="#DejaVuSans-67" transform="translate(1419.287109 0)"/>
      <use xlink:href="#DejaVuSans-68" transform="translate(1482.763672 0)"/>
      <use xlink:href="#DejaVuSans-62" transform="translate(1546.142578 0)"/>
      <use xlink:href="#DejaVuSans-6f" transform="translate(1609.619141 0)"/>
      <use xlink:href="#DejaVuSans-72" transform="translate(1670.800781 0)"/>
      <use xlink:href="#DejaVuSans-68" transform="translate(1710.164062 0)"/>
      <use xlink:href="#DejaVuSans-6f" transform="translate(1773.542969 0)"/>
      <use xlink:href="#DejaVuSans-6f" transform="translate(1834.724609 0)"/>
      <use xlink:href="#DejaVuSans-64" transform="translate(1895.90625 0)"/>
      <use xlink:href="#DejaVuSans-73" transform="translate(1959.382812 0)"/>
      <use xlink:href="#DejaVuSans-29" transform="translate(2011.482422 0)"/>
     </g>
    </g>
   </g>
   <g id="matplotlib.axis_2">
    <g id="ytick_1">
     <g id="line2d_7">
      <defs>
       <path id="m14f7861ba8" d="M 0 0 
L -3.5 0 
" style="stroke: #000000; stroke-width: 0.8"/>
      </defs>
      <g>
       <use xlink:href="#m14f7861ba8" x="115.857812" y="773.137386" style="stroke: #000000; stroke-width: 0.8"/>
      </g>
     </g>
     <g id="text_8">
      <!-- Proliferating (Epi) -->
      <g transform="translate(30.432656 776.556683) scale(0.09 -0.09)">
       <defs>
        <path id="DejaVuSans-50" d="M 1259 4147 
L 1259 2394 
L 2053 2394 
Q 2494 2394 2734 2622 
Q 2975 2850 2975 3272 
Q 2975 3691 2734 3919 
Q 2494 4147 2053 4147 
L 1259 4147 
z
M 628 4666 
L 2053 4666 
Q 2838 4666 3239 4311 
Q 3641 3956 3641 3272 
Q 3641 2581 3239 2228 
Q 2838 1875 2053 1875 
L 1259 1875 
L 1259 0 
L 628 0 
L 628 4666 
z
" transform="scale(0.015625)"/>
        <path id="DejaVuSans-45" d="M 628 4666 
L 3578 4666 
L 3578 4134 
L 1259 4134 
L 1259 2753 
L 3481 2753 
L 3481 2222 
L 1259 2222 
L 1259 531 
L 3634 531 
L 3634 0 
L 628 0 
L 628 4666 
z
" transform="scale(0.015625)"/>
        <path id="DejaVuSans-70" d="M 1159 525 
L 1159 -1331 
L 581 -1331 
L 581 3500 
L 1159 3500 
L 1159 2969 
Q 1341 3281 1617 3432 
Q 1894 3584 2278 3584 
Q 2916 3584 3314 3078 
Q 3713 2572 3713 1747 
Q 3713 922 3314 415 
Q 2916 -91 2278 -91 
Q 1894 -91 1617 61 
Q 1341 213 1159 525 
z
M 3116 1747 
Q 3116 2381 2855 2742 
Q 2594 3103 2138 3103 
Q 1681 3103 1420 2742 
Q 1159 2381 1159 1747 
Q 1159 1113 1420 752 
Q 1681 391 2138 391 
Q 2594 391 2855 752 
Q 3116 1113 3116 1747 
z
" transform="scale(0.015625)"/>
       </defs>
       <use xlink:href="#DejaVuSans-50"/>
       <use xlink:href="#DejaVuSans-72" transform="translate(58.552734 0)"/>
       <use xlink:href="#DejaVuSans-6f" transform="translate(97.416016 0)"/>
       <use xlink:href="#DejaVuSans-6c" transform="translate(158.597656 0)"/>
       <use xlink:href="#DejaVuSans-69" transform="translate(186.380859 0)"/>
       <use xlink:href="#DejaVuSans-66" transform="translate(214.164062 0)"/>
       <use xlink:href="#DejaVuSans-65" transform="translate(249.369141 0)"/>
       <use xlink:href="#DejaVuSans-72" transform="translate(310.892578 0)"/>
       <use xlink:href="#DejaVuSans-61" transform="translate(352.005859 0)"/>
       <use xlink:href="#DejaVuSans-74" transform="translate(413.285156 0)"/>
       <use xlink:href="#DejaVuSans-69" transform="translate(452.494141 0)"/>
       <use xlink:href="#DejaVuSans-6e" transform="translate(480.277344 0)"/>
       <use xlink:href="#DejaVuSans-67" transform="translate(543.65625 0)"/>
       <use xlink:href="#DejaVuSans-20" transform="translate(607.132812 0)"/>
       <use xlink:href="#DejaVuSans-28" transform="translate(638.919922 0)"/>
       <use xlink:href="#DejaVuSans-45" transform="translate(677.933594 0)"/>
       <use xlink:href="#DejaVuSans-70" transform="translate(741.117188 0)"/>
       <use xlink:href="#DejaVuSans-69" transform="translate(804.59375 0)"/>
       <use xlink:href="#DejaVuSans-29" transform="translate(832.376953 0)"/>
      </g>
     </g>
    </g>
    <g id="ytick_2">
     <g id="line2d_8">
      <g>
       <use xlink:href="#m14f7861ba8" x="115.857812" y="751.084922" style="stroke: #000000; stroke-width: 0.8"/>
      </g>
     </g>
     <g id="text_9">
      <!-- Pericyte -->
      <g transform="translate(72.677812 754.504219) scale(0.09 -0.09)">
       <defs>
        <path id="DejaVuSans-79" d="M 2059 -325 
Q 1816 -950 1584 -1140 
Q 1353 -1331 966 -1331 
L 506 -1331 
L 506 -850 
L 844 -850 
Q 1081 -850 1212 -737 
Q 1344 -625 1503 -206 
L 1606 56 
L 191 3500 
L 800 3500 
L 1894 763 
L 2988 3500 
L 3597 3500 
L 2059 -325 
z
" transform="scale(0.015625)"/>
       </defs>
       <use xlink:href="#DejaVuSans-50"/>
       <use xlink:href="#DejaVuSans-65" transform="translate(56.677734 0)"/>
       <use xlink:href="#DejaVuSans-72" transform="translate(118.201172 0)"/>
       <use xlink:href="#DejaVuSans-69" transform="translate(159.314453 0)"/>
       <use xlink:href="#DejaVuSans-63" transform="translate(187.097656 0)"/>
       <use xlink:href="#DejaVuSans-79" transform="translate(242.078125 0)"/>
       <use xlink:href="#DejaVuSans-74" transform="translate(301.257812 0)"/>
       <use xlink:href="#DejaVuSans-65" transform="translate(340.466797 0)"/>
      </g>
     </g>
    </g>
    <g id="ytick_3">
     <g id="line2d_9">
      <g>
       <use xlink:href="#m14f7861ba8" x="115.857812" y="729.032459" style="stroke: #000000; stroke-width: 0.8"/>
      </g>
     </g>
     <g id="text_10">
      <!-- Lymphatic EC -->
      <g transform="translate(47.829375 732.451756) scale(0.09 -0.09)">
       <defs>
        <path id="DejaVuSans-4c" d="M 628 4666 
L 1259 4666 
L 1259 531 
L 3531 531 
L 3531 0 
L 628 0 
L 628 4666 
z
" transform="scale(0.015625)"/>
        <path id="DejaVuSans-6d" d="M 3328 2828 
Q 3544 3216 3844 3400 
Q 4144 3584 4550 3584 
Q 5097 3584 5394 3201 
Q 5691 2819 5691 2113 
L 5691 0 
L 5113 0 
L 5113 2094 
Q 5113 2597 4934 2840 
Q 4756 3084 4391 3084 
Q 3944 3084 3684 2787 
Q 3425 2491 3425 1978 
L 3425 0 
L 2847 0 
L 2847 2094 
Q 2847 2600 2669 2842 
Q 2491 3084 2119 3084 
Q 1678 3084 1418 2786 
Q 1159 2488 1159 1978 
L 1159 0 
L 581 0 
L 581 3500 
L 1159 3500 
L 1159 2956 
Q 1356 3278 1631 3431 
Q 1906 3584 2284 3584 
Q 2666 3584 2933 3390 
Q 3200 3197 3328 2828 
z
" transform="scale(0.015625)"/>
       </defs>
       <use xlink:href="#DejaVuSans-4c"/>
       <use xlink:href="#DejaVuSans-79" transform="translate(46.587891 0)"/>
       <use xlink:href="#DejaVuSans-6d" transform="translate(105.767578 0)"/>
       <use xlink:href="#DejaVuSans-70" transform="translate(203.179688 0)"/>
       <use xlink:href="#DejaVuSans-68" transform="translate(266.65625 0)"/>
       <use xlink:href="#DejaVuSans-61" transform="translate(330.035156 0)"/>
       <use xlink:href="#DejaVuSans-74" transform="translate(391.314453 0)"/>
       <use xlink:href="#DejaVuSans-69" transform="translate(430.523438 0)"/>
       <use xlink:href="#DejaVuSans-63" transform="translate(458.306641 0)"/>
       <use xlink:href="#DejaVuSans-20" transform="translate(513.287109 0)"/>
       <use xlink:href="#DejaVuSans-45" transform="translate(545.074219 0)"/>
       <use xlink:href="#DejaVuSans-43" transform="translate(608.257812 0)"/>
      </g>
     </g>
    </g>
    <g id="ytick_4">
     <g id="line2d_10">
      <g>
       <use xlink:href="#m14f7861ba8" x="115.857812" y="706.979995" style="stroke: #000000; stroke-width: 0.8"/>
      </g>
     </g>
     <g id="text_11">
      <!-- Myofibroblasts -->
      <g transform="translate(43.237969 710.399292) scale(0.09 -0.09)">
       <use xlink:href="#DejaVuSans-4d"/>
       <use xlink:href="#DejaVuSans-79" transform="translate(86.279297 0)"/>
       <use xlink:href="#DejaVuSans-6f" transform="translate(145.458984 0)"/>
       <use xlink:href="#DejaVuSans-66" transform="translate(206.640625 0)"/>
       <use xlink:href="#DejaVuSans-69" transform="translate(241.845703 0)"/>
       <use xlink:href="#DejaVuSans-62" transform="translate(269.628906 0)"/>
       <use xlink:href="#DejaVuSans-72" transform="translate(333.105469 0)"/>
       <use xlink:href="#DejaVuSans-6f" transform="translate(371.96875 0)"/>
       <use xlink:href="#DejaVuSans-62" transform="translate(433.150391 0)"/>
       <use xlink:href="#DejaVuSans-6c" transform="translate(496.626953 0)"/>
       <use xlink:href="#DejaVuSans-61" transform="translate(524.410156 0)"/>
       <use xlink:href="#DejaVuSans-73" transform="translate(585.689453 0)"/>
       <use xlink:href="#DejaVuSans-74" transform="translate(637.789062 0)"/>
       <use xlink:href="#DejaVuSans-73" transform="translate(676.998047 0)"/>
      </g>
     </g>
    </g>
    <g id="ytick_5">
     <g id="line2d_11">
      <g>
       <use xlink:href="#m14f7861ba8" x="115.857812" y="684.927532" style="stroke: #000000; stroke-width: 0.8"/>
      </g>
     </g>
     <g id="text_12">
      <!-- Proliferating (Immune) -->
      <g transform="translate(7.2 688.346828) scale(0.09 -0.09)">
       <defs>
        <path id="DejaVuSans-49" d="M 628 4666 
L 1259 4666 
L 1259 0 
L 628 0 
L 628 4666 
z
" transform="scale(0.015625)"/>
        <path id="DejaVuSans-75" d="M 544 1381 
L 544 3500 
L 1119 3500 
L 1119 1403 
Q 1119 906 1312 657 
Q 1506 409 1894 409 
Q 2359 409 2629 706 
Q 2900 1003 2900 1516 
L 2900 3500 
L 3475 3500 
L 3475 0 
L 2900 0 
L 2900 538 
Q 2691 219 2414 64 
Q 2138 -91 1772 -91 
Q 1169 -91 856 284 
Q 544 659 544 1381 
z
M 1991 3584 
L 1991 3584 
z
" transform="scale(0.015625)"/>
       </defs>
       <use xlink:href="#DejaVuSans-50"/>
       <use xlink:href="#DejaVuSans-72" transform="translate(58.552734 0)"/>
       <use xlink:href="#DejaVuSans-6f" transform="translate(97.416016 0)"/>
       <use xlink:href="#DejaVuSans-6c" transform="translate(158.597656 0)"/>
       <use xlink:href="#DejaVuSans-69" transform="translate(186.380859 0)"/>
       <use xlink:href="#DejaVuSans-66" transform="translate(214.164062 0)"/>
       <use xlink:href="#DejaVuSans-65" transform="translate(249.369141 0)"/>
       <use xlink:href="#DejaVuSans-72" transform="translate(310.892578 0)"/>
       <use xlink:href="#DejaVuSans-61" transform="translate(352.005859 0)"/>
       <use xlink:href="#DejaVuSans-74" transform="translate(413.285156 0)"/>
       <use xlink:href="#DejaVuSans-69" transform="translate(452.494141 0)"/>
       <use xlink:href="#DejaVuSans-6e" transform="translate(480.277344 0)"/>
       <use xlink:href="#DejaVuSans-67" transform="translate(543.65625 0)"/>
       <use xlink:href="#DejaVuSans-20" transform="translate(607.132812 0)"/>
       <use xlink:href="#DejaVuSans-28" transform="translate(638.919922 0)"/>
       <use xlink:href="#DejaVuSans-49" transform="translate(677.933594 0)"/>
       <use xlink:href="#DejaVuSans-6d" transform="translate(707.425781 0)"/>
       <use xlink:href="#DejaVuSans-6d" transform="translate(804.837891 0)"/>
       <use xlink:href="#DejaVuSans-75" transform="translate(902.25 0)"/>
       <use xlink:href="#DejaVuSans-6e" transform="translate(965.628906 0)"/>
       <use xlink:href="#DejaVuSans-65" transform="translate(1029.007812 0)"/>
       <use xlink:href="#DejaVuSans-29" transform="translate(1090.53125 0)"/>
      </g>
     </g>
    </g>
    <g id="ytick_6">
     <g id="line2d_12">
      <g>
       <use xlink:href="#m14f7861ba8" x="115.857812" y="662.875068" style="stroke: #000000; stroke-width: 0.8"/>
      </g>
     </g>
     <g id="text_13">
      <!-- Dendritic cells -->
      <g transform="translate(44.759531 666.294365) scale(0.09 -0.09)">
       <defs>
        <path id="DejaVuSans-44" d="M 1259 4147 
L 1259 519 
L 2022 519 
Q 2988 519 3436 956 
Q 3884 1394 3884 2338 
Q 3884 3275 3436 3711 
Q 2988 4147 2022 4147 
L 1259 4147 
z
M 628 4666 
L 1925 4666 
Q 3281 4666 3915 4102 
Q 4550 3538 4550 2338 
Q 4550 1131 3912 565 
Q 3275 0 1925 0 
L 628 0 
L 628 4666 
z
" transform="scale(0.015625)"/>
       </defs>
       <use xlink:href="#DejaVuSans-44"/>
       <use xlink:href="#DejaVuSans-65" transform="translate(77.001953 0)"/>
       <use xlink:href="#DejaVuSans-6e" transform="translate(138.525391 0)"/>
       <use xlink:href="#DejaVuSans-64" transform="translate(201.904297 0)"/>
       <use xlink:href="#DejaVuSans-72" transform="translate(265.380859 0)"/>
       <use xlink:href="#DejaVuSans-69" transform="translate(306.494141 0)"/>
       <use xlink:href="#DejaVuSans-74" transform="translate(334.277344 0)"/>
       <use xlink:href="#DejaVuSans-69" transform="translate(373.486328 0)"/>
       <use xlink:href="#DejaVuSans-63" transform="translate(401.269531 0)"/>
       <use xlink:href="#DejaVuSans-20" transform="translate(456.25 0)"/>
       <use xlink:href="#DejaVuSans-63" transform="translate(488.037109 0)"/>
       <use xlink:href="#DejaVuSans-65" transform="translate(543.017578 0)"/>
       <use xlink:href="#DejaVuSans-6c" transform="translate(604.541016 0)"/>
       <use xlink:href="#DejaVuSans-6c" transform="translate(632.324219 0)"/>
       <use xlink:href="#DejaVuSans-73" transform="translate(660.107422 0)"/>
      </g>
     </g>
    </g>
    <g id="ytick_7">
     <g id="line2d_13">
      <g>
       <use xlink:href="#m14f7861ba8" x="115.857812" y="640.822604" style="stroke: #000000; stroke-width: 0.8"/>
      </g>
     </g>
     <g id="text_14">
      <!-- Lymphoid -->
      <g transform="translate(65.432812 644.241901) scale(0.09 -0.09)">
       <use xlink:href="#DejaVuSans-4c"/>
       <use xlink:href="#DejaVuSans-79" transform="translate(46.587891 0)"/>
       <use xlink:href="#DejaVuSans-6d" transform="translate(105.767578 0)"/>
       <use xlink:href="#DejaVuSans-70" transform="translate(203.179688 0)"/>
       <use xlink:href="#DejaVuSans-68" transform="translate(266.65625 0)"/>
       <use xlink:href="#DejaVuSans-6f" transform="translate(330.035156 0)"/>
       <use xlink:href="#DejaVuSans-69" transform="translate(391.216797 0)"/>
       <use xlink:href="#DejaVuSans-64" transform="translate(419 0)"/>
      </g>
     </g>
    </g>
    <g id="ytick_8">
     <g id="line2d_14">
      <g>
       <use xlink:href="#m14f7861ba8" x="115.857812" y="618.770141" style="stroke: #000000; stroke-width: 0.8"/>
      </g>
     </g>
     <g id="text_15">
      <!-- Smooth Muscle -->
      <g transform="translate(40.127344 622.189438) scale(0.09 -0.09)">
       <defs>
        <path id="DejaVuSans-53" d="M 3425 4513 
L 3425 3897 
Q 3066 4069 2747 4153 
Q 2428 4238 2131 4238 
Q 1616 4238 1336 4038 
Q 1056 3838 1056 3469 
Q 1056 3159 1242 3001 
Q 1428 2844 1947 2747 
L 2328 2669 
Q 3034 2534 3370 2195 
Q 3706 1856 3706 1288 
Q 3706 609 3251 259 
Q 2797 -91 1919 -91 
Q 1588 -91 1214 -16 
Q 841 59 441 206 
L 441 856 
Q 825 641 1194 531 
Q 1563 422 1919 422 
Q 2459 422 2753 634 
Q 3047 847 3047 1241 
Q 3047 1584 2836 1778 
Q 2625 1972 2144 2069 
L 1759 2144 
Q 1053 2284 737 2584 
Q 422 2884 422 3419 
Q 422 4038 858 4394 
Q 1294 4750 2059 4750 
Q 2388 4750 2728 4690 
Q 3069 4631 3425 4513 
z
" transform="scale(0.015625)"/>
       </defs>
       <use xlink:href="#DejaVuSans-53"/>
       <use xlink:href="#DejaVuSans-6d" transform="translate(63.476562 0)"/>
       <use xlink:href="#DejaVuSans-6f" transform="translate(160.888672 0)"/>
       <use xlink:href="#DejaVuSans-6f" transform="translate(222.070312 0)"/>
       <use xlink:href="#DejaVuSans-74" transform="translate(283.251953 0)"/>
       <use xlink:href="#DejaVuSans-68" transform="translate(322.460938 0)"/>
       <use xlink:href="#DejaVuSans-20" transform="translate(385.839844 0)"/>
       <use xlink:href="#DejaVuSans-4d" transform="translate(417.626953 0)"/>
       <use xlink:href="#DejaVuSans-75" transform="translate(503.90625 0)"/>
       <use xlink:href="#DejaVuSans-73" transform="translate(567.285156 0)"/>
       <use xlink:href="#DejaVuSans-63" transform="translate(619.384766 0)"/>
       <use xlink:href="#DejaVuSans-6c" transform="translate(674.365234 0)"/>
       <use xlink:href="#DejaVuSans-65" transform="translate(702.148438 0)"/>
      </g>
     </g>
    </g>
    <g id="ytick_9">
     <g id="line2d_15">
      <g>
       <use xlink:href="#m14f7861ba8" x="115.857812" y="596.717677" style="stroke: #000000; stroke-width: 0.8"/>
      </g>
     </g>
     <g id="text_16">
      <!-- Myeloid -->
      <g transform="translate(74.006719 600.136974) scale(0.09 -0.09)">
       <use xlink:href="#DejaVuSans-4d"/>
       <use xlink:href="#DejaVuSans-79" transform="translate(86.279297 0)"/>
       <use xlink:href="#DejaVuSans-65" transform="translate(145.458984 0)"/>
       <use xlink:href="#DejaVuSans-6c" transform="translate(206.982422 0)"/>
       <use xlink:href="#DejaVuSans-6f" transform="translate(234.765625 0)"/>
       <use xlink:href="#DejaVuSans-69" transform="translate(295.947266 0)"/>
       <use xlink:href="#DejaVuSans-64" transform="translate(323.730469 0)"/>
      </g>
     </g>
    </g>
    <g id="ytick_10">
     <g id="line2d_16">
      <g>
       <use xlink:href="#m14f7861ba8" x="115.857812" y="574.665214" style="stroke: #000000; stroke-width: 0.8"/>
      </g>
     </g>
     <g id="text_17">
      <!-- Endothelial (Macro) -->
      <g transform="translate(21.344062 578.084511) scale(0.09 -0.09)">
       <use xlink:href="#DejaVuSans-45"/>
       <use xlink:href="#DejaVuSans-6e" transform="translate(63.183594 0)"/>
       <use xlink:href="#DejaVuSans-64" transform="translate(126.5625 0)"/>
       <use xlink:href="#DejaVuSans-6f" transform="translate(190.039062 0)"/>
       <use xlink:href="#DejaVuSans-74" transform="translate(251.220703 0)"/>
       <use xlink:href="#DejaVuSans-68" transform="translate(290.429688 0)"/>
       <use xlink:href="#DejaVuSans-65" transform="translate(353.808594 0)"/>
       <use xlink:href="#DejaVuSans-6c" transform="translate(415.332031 0)"/>
       <use xlink:href="#DejaVuSans-69" transform="translate(443.115234 0)"/>
       <use xlink:href="#DejaVuSans-61" transform="translate(470.898438 0)"/>
       <use xlink:href="#DejaVuSans-6c" transform="translate(532.177734 0)"/>
       <use xlink:href="#DejaVuSans-20" transform="translate(559.960938 0)"/>
       <use xlink:href="#DejaVuSans-28" transform="translate(591.748047 0)"/>
       <use xlink:href="#DejaVuSans-4d" transform="translate(630.761719 0)"/>
       <use xlink:href="#DejaVuSans-61" transform="translate(717.041016 0)"/>
       <use xlink:href="#DejaVuSans-63" transform="translate(778.320312 0)"/>
       <use xlink:href="#DejaVuSans-72" transform="translate(833.300781 0)"/>
       <use xlink:href="#DejaVuSans-6f" transform="translate(872.164062 0)"/>
       <use xlink:href="#DejaVuSans-29" transform="translate(933.345703 0)"/>
      </g>
     </g>
    </g>
    <g id="ytick_11">
     <g id="line2d_17">
      <g>
       <use xlink:href="#m14f7861ba8" x="115.857812" y="552.61275" style="stroke: #000000; stroke-width: 0.8"/>
      </g>
     </g>
     <g id="text_18">
      <!-- Submucosal Gland -->
      <g transform="translate(24.830156 556.032047) scale(0.09 -0.09)">
       <defs>
        <path id="DejaVuSans-47" d="M 3809 666 
L 3809 1919 
L 2778 1919 
L 2778 2438 
L 4434 2438 
L 4434 434 
Q 4069 175 3628 42 
Q 3188 -91 2688 -91 
Q 1594 -91 976 548 
Q 359 1188 359 2328 
Q 359 3472 976 4111 
Q 1594 4750 2688 4750 
Q 3144 4750 3555 4637 
Q 3966 4525 4313 4306 
L 4313 3634 
Q 3963 3931 3569 4081 
Q 3175 4231 2741 4231 
Q 1884 4231 1454 3753 
Q 1025 3275 1025 2328 
Q 1025 1384 1454 906 
Q 1884 428 2741 428 
Q 3075 428 3337 486 
Q 3600 544 3809 666 
z
" transform="scale(0.015625)"/>
       </defs>
       <use xlink:href="#DejaVuSans-53"/>
       <use xlink:href="#DejaVuSans-75" transform="translate(63.476562 0)"/>
       <use xlink:href="#DejaVuSans-62" transform="translate(126.855469 0)"/>
       <use xlink:href="#DejaVuSans-6d" transform="translate(190.332031 0)"/>
       <use xlink:href="#DejaVuSans-75" transform="translate(287.744141 0)"/>
       <use xlink:href="#DejaVuSans-63" transform="translate(351.123047 0)"/>
       <use xlink:href="#DejaVuSans-6f" transform="translate(406.103516 0)"/>
       <use xlink:href="#DejaVuSans-73" transform="translate(467.285156 0)"/>
       <use xlink:href="#DejaVuSans-61" transform="translate(519.384766 0)"/>
       <use xlink:href="#DejaVuSans-6c" transform="translate(580.664062 0)"/>
       <use xlink:href="#DejaVuSans-20" transform="translate(608.447266 0)"/>
       <use xlink:href="#DejaVuSans-47" transform="translate(640.234375 0)"/>
       <use xlink:href="#DejaVuSans-6c" transform="translate(717.724609 0)"/>
       <use xlink:href="#DejaVuSans-61" transform="translate(745.507812 0)"/>
       <use xlink:href="#DejaVuSans-6e" transform="translate(806.787109 0)"/>
       <use xlink:href="#DejaVuSans-64" transform="translate(870.166016 0)"/>
      </g>
     </g>
    </g>
    <g id="ytick_12">
     <g id="line2d_18">
      <g>
       <use xlink:href="#m14f7861ba8" x="115.857812" y="530.560287" style="stroke: #000000; stroke-width: 0.8"/>
      </g>
     </g>
     <g id="text_19">
      <!-- Endothelial -->
      <g transform="translate(58.460625 533.979583) scale(0.09 -0.09)">
       <use xlink:href="#DejaVuSans-45"/>
       <use xlink:href="#DejaVuSans-6e" transform="translate(63.183594 0)"/>
       <use xlink:href="#DejaVuSans-64" transform="translate(126.5625 0)"/>
       <use xlink:href="#DejaVuSans-6f" transform="translate(190.039062 0)"/>
       <use xlink:href="#DejaVuSans-74" transform="translate(251.220703 0)"/>
       <use xlink:href="#DejaVuSans-68" transform="translate(290.429688 0)"/>
       <use xlink:href="#DejaVuSans-65" transform="translate(353.808594 0)"/>
       <use xlink:href="#DejaVuSans-6c" transform="translate(415.332031 0)"/>
       <use xlink:href="#DejaVuSans-69" transform="translate(443.115234 0)"/>
       <use xlink:href="#DejaVuSans-61" transform="translate(470.898438 0)"/>
       <use xlink:href="#DejaVuSans-6c" transform="translate(532.177734 0)"/>
      </g>
     </g>
    </g>
    <g id="ytick_13">
     <g id="line2d_19">
      <g>
       <use xlink:href="#m14f7861ba8" x="115.857812" y="508.507823" style="stroke: #000000; stroke-width: 0.8"/>
      </g>
     </g>
     <g id="text_20">
      <!-- PLIN2+ Fibroblasts -->
      <g transform="translate(24.523594 511.92712) scale(0.09 -0.09)">
       <defs>
        <path id="DejaVuSans-4e" d="M 628 4666 
L 1478 4666 
L 3547 763 
L 3547 4666 
L 4159 4666 
L 4159 0 
L 3309 0 
L 1241 3903 
L 1241 0 
L 628 0 
L 628 4666 
z
" transform="scale(0.015625)"/>
        <path id="DejaVuSans-2b" d="M 2944 4013 
L 2944 2272 
L 4684 2272 
L 4684 1741 
L 2944 1741 
L 2944 0 
L 2419 0 
L 2419 1741 
L 678 1741 
L 678 2272 
L 2419 2272 
L 2419 4013 
L 2944 4013 
z
" transform="scale(0.015625)"/>
       </defs>
       <use xlink:href="#DejaVuSans-50"/>
       <use xlink:href="#DejaVuSans-4c" transform="translate(60.302734 0)"/>
       <use xlink:href="#DejaVuSans-49" transform="translate(116.015625 0)"/>
       <use xlink:href="#DejaVuSans-4e" transform="translate(145.507812 0)"/>
       <use xlink:href="#DejaVuSans-32" transform="translate(220.3125 0)"/>
       <use xlink:href="#DejaVuSans-2b" transform="translate(283.935547 0)"/>
       <use xlink:href="#DejaVuSans-20" transform="translate(367.724609 0)"/>
       <use xlink:href="#DejaVuSans-46" transform="translate(399.511719 0)"/>
       <use xlink:href="#DejaVuSans-69" transform="translate(449.78125 0)"/>
       <use xlink:href="#DejaVuSans-62" transform="translate(477.564453 0)"/>
       <use xlink:href="#DejaVuSans-72" transform="translate(541.041016 0)"/>
       <use xlink:href="#DejaVuSans-6f" transform="translate(579.904297 0)"/>
       <use xlink:href="#DejaVuSans-62" transform="translate(641.085938 0)"/>
       <use xlink:href="#DejaVuSans-6c" transform="translate(704.5625 0)"/>
       <use xlink:href="#DejaVuSans-61" transform="translate(732.345703 0)"/>
       <use xlink:href="#DejaVuSans-73" transform="translate(793.625 0)"/>
       <use xlink:href="#DejaVuSans-74" transform="translate(845.724609 0)"/>
       <use xlink:href="#DejaVuSans-73" transform="translate(884.933594 0)"/>
      </g>
     </g>
    </g>
    <g id="ytick_14">
     <g id="line2d_20">
      <g>
       <use xlink:href="#m14f7861ba8" x="115.857812" y="486.455359" style="stroke: #000000; stroke-width: 0.8"/>
      </g>
     </g>
     <g id="text_21">
      <!-- Distal Epithelium -->
      <g transform="translate(32.193281 489.874656) scale(0.09 -0.09)">
       <use xlink:href="#DejaVuSans-44"/>
       <use xlink:href="#DejaVuSans-69" transform="translate(77.001953 0)"/>
       <use xlink:href="#DejaVuSans-73" transform="translate(104.785156 0)"/>
       <use xlink:href="#DejaVuSans-74" transform="translate(156.884766 0)"/>
       <use xlink:href="#DejaVuSans-61" transform="translate(196.09375 0)"/>
       <use xlink:href="#DejaVuSans-6c" transform="translate(257.373047 0)"/>
       <use xlink:href="#DejaVuSans-20" transform="translate(285.15625 0)"/>
       <use xlink:href="#DejaVuSans-45" transform="translate(316.943359 0)"/>
       <use xlink:href="#DejaVuSans-70" transform="translate(380.126953 0)"/>
       <use xlink:href="#DejaVuSans-69" transform="translate(443.603516 0)"/>
       <use xlink:href="#DejaVuSans-74" transform="translate(471.386719 0)"/>
       <use xlink:href="#DejaVuSans-68" transform="translate(510.595703 0)"/>
       <use xlink:href="#DejaVuSans-65" transform="translate(573.974609 0)"/>
       <use xlink:href="#DejaVuSans-6c" transform="translate(635.498047 0)"/>
       <use xlink:href="#DejaVuSans-69" transform="translate(663.28125 0)"/>
       <use xlink:href="#DejaVuSans-75" transform="translate(691.064453 0)"/>
       <use xlink:href="#DejaVuSans-6d" transform="translate(754.443359 0)"/>
      </g>
     </g>
    </g>
    <g id="ytick_15">
     <g id="line2d_21">
      <g>
       <use xlink:href="#m14f7861ba8" x="115.857812" y="464.402896" style="stroke: #000000; stroke-width: 0.8"/>
      </g>
     </g>
     <g id="text_22">
      <!-- Proximal Epithelium -->
      <g transform="translate(19.254375 467.822193) scale(0.09 -0.09)">
       <defs>
        <path id="DejaVuSans-78" d="M 3513 3500 
L 2247 1797 
L 3578 0 
L 2900 0 
L 1881 1375 
L 863 0 
L 184 0 
L 1544 1831 
L 300 3500 
L 978 3500 
L 1906 2253 
L 2834 3500 
L 3513 3500 
z
" transform="scale(0.015625)"/>
       </defs>
       <use xlink:href="#DejaVuSans-50"/>
       <use xlink:href="#DejaVuSans-72" transform="translate(58.552734 0)"/>
       <use xlink:href="#DejaVuSans-6f" transform="translate(97.416016 0)"/>
       <use xlink:href="#DejaVuSans-78" transform="translate(155.472656 0)"/>
       <use xlink:href="#DejaVuSans-69" transform="translate(214.652344 0)"/>
       <use xlink:href="#DejaVuSans-6d" transform="translate(242.435547 0)"/>
       <use xlink:href="#DejaVuSans-61" transform="translate(339.847656 0)"/>
       <use xlink:href="#DejaVuSans-6c" transform="translate(401.126953 0)"/>
       <use xlink:href="#DejaVuSans-20" transform="translate(428.910156 0)"/>
       <use xlink:href="#DejaVuSans-45" transform="translate(460.697266 0)"/>
       <use xlink:href="#DejaVuSans-70" transform="translate(523.880859 0)"/>
       <use xlink:href="#DejaVuSans-69" transform="translate(587.357422 0)"/>
       <use xlink:href="#DejaVuSans-74" transform="translate(615.140625 0)"/>
       <use xlink:href="#DejaVuSans-68" transform="translate(654.349609 0)"/>
       <use xlink:href="#DejaVuSans-65" transform="translate(717.728516 0)"/>
       <use xlink:href="#DejaVuSans-6c" transform="translate(779.251953 0)"/>
       <use xlink:href="#DejaVuSans-69" transform="translate(807.035156 0)"/>
       <use xlink:href="#DejaVuSans-75" transform="translate(834.818359 0)"/>
       <use xlink:href="#DejaVuSans-6d" transform="translate(898.197266 0)"/>
      </g>
     </g>
    </g>
    <g id="ytick_16">
     <g id="line2d_22">
      <g>
       <use xlink:href="#m14f7861ba8" x="115.857812" y="442.350432" style="stroke: #000000; stroke-width: 0.8"/>
      </g>
     </g>
     <g id="text_23">
      <!-- B cells -->
      <g transform="translate(79.647188 445.769729) scale(0.09 -0.09)">
       <defs>
        <path id="DejaVuSans-42" d="M 1259 2228 
L 1259 519 
L 2272 519 
Q 2781 519 3026 730 
Q 3272 941 3272 1375 
Q 3272 1813 3026 2020 
Q 2781 2228 2272 2228 
L 1259 2228 
z
M 1259 4147 
L 1259 2741 
L 2194 2741 
Q 2656 2741 2882 2914 
Q 3109 3088 3109 3444 
Q 3109 3797 2882 3972 
Q 2656 4147 2194 4147 
L 1259 4147 
z
M 628 4666 
L 2241 4666 
Q 2963 4666 3353 4366 
Q 3744 4066 3744 3513 
Q 3744 3084 3544 2831 
Q 3344 2578 2956 2516 
Q 3422 2416 3680 2098 
Q 3938 1781 3938 1306 
Q 3938 681 3513 340 
Q 3088 0 2303 0 
L 628 0 
L 628 4666 
z
" transform="scale(0.015625)"/>
       </defs>
       <use xlink:href="#DejaVuSans-42"/>
       <use xlink:href="#DejaVuSans-20" transform="translate(68.603516 0)"/>
       <use xlink:href="#DejaVuSans-63" transform="translate(100.390625 0)"/>
       <use xlink:href="#DejaVuSans-65" transform="translate(155.371094 0)"/>
       <use xlink:href="#DejaVuSans-6c" transform="translate(216.894531 0)"/>
       <use xlink:href="#DejaVuSans-6c" transform="translate(244.677734 0)"/>
       <use xlink:href="#DejaVuSans-73" transform="translate(272.460938 0)"/>
      </g>
     </g>
    </g>
    <g id="ytick_17">
     <g id="line2d_23">
      <g>
       <use xlink:href="#m14f7861ba8" x="115.857812" y="420.297969" style="stroke: #000000; stroke-width: 0.8"/>
      </g>
     </g>
     <g id="text_24">
      <!-- Alveolar Epithelium -->
      <g transform="translate(21.112031 423.717266) scale(0.09 -0.09)">
       <defs>
        <path id="DejaVuSans-41" d="M 2188 4044 
L 1331 1722 
L 3047 1722 
L 2188 4044 
z
M 1831 4666 
L 2547 4666 
L 4325 0 
L 3669 0 
L 3244 1197 
L 1141 1197 
L 716 0 
L 50 0 
L 1831 4666 
z
" transform="scale(0.015625)"/>
        <path id="DejaVuSans-76" d="M 191 3500 
L 800 3500 
L 1894 563 
L 2988 3500 
L 3597 3500 
L 2284 0 
L 1503 0 
L 191 3500 
z
" transform="scale(0.015625)"/>
       </defs>
       <use xlink:href="#DejaVuSans-41"/>
       <use xlink:href="#DejaVuSans-6c" transform="translate(68.408203 0)"/>
       <use xlink:href="#DejaVuSans-76" transform="translate(96.191406 0)"/>
       <use xlink:href="#DejaVuSans-65" transform="translate(155.371094 0)"/>
       <use xlink:href="#DejaVuSans-6f" transform="translate(216.894531 0)"/>
       <use xlink:href="#DejaVuSans-6c" transform="translate(278.076172 0)"/>
       <use xlink:href="#DejaVuSans-61" transform="translate(305.859375 0)"/>
       <use xlink:href="#DejaVuSans-72" transform="translate(367.138672 0)"/>
       <use xlink:href="#DejaVuSans-20" transform="translate(408.251953 0)"/>
       <use xlink:href="#DejaVuSans-45" transform="translate(440.039062 0)"/>
       <use xlink:href="#DejaVuSans-70" transform="translate(503.222656 0)"/>
       <use xlink:href="#DejaVuSans-69" transform="translate(566.699219 0)"/>
       <use xlink:href="#DejaVuSans-74" transform="translate(594.482422 0)"/>
       <use xlink:href="#DejaVuSans-68" transform="translate(633.691406 0)"/>
       <use xlink:href="#DejaVuSans-65" transform="translate(697.070312 0)"/>
       <use xlink:href="#DejaVuSans-6c" transform="translate(758.59375 0)"/>
       <use xlink:href="#DejaVuSans-69" transform="translate(786.376953 0)"/>
       <use xlink:href="#DejaVuSans-75" transform="translate(814.160156 0)"/>
       <use xlink:href="#DejaVuSans-6d" transform="translate(877.539062 0)"/>
      </g>
     </g>
    </g>
    <g id="ytick_18">
     <g id="line2d_24">
      <g>
       <use xlink:href="#m14f7861ba8" x="115.857812" y="398.245505" style="stroke: #000000; stroke-width: 0.8"/>
      </g>
     </g>
     <g id="text_25">
      <!-- Mesothelial -->
      <g transform="translate(57.573281 401.664802) scale(0.09 -0.09)">
       <use xlink:href="#DejaVuSans-4d"/>
       <use xlink:href="#DejaVuSans-65" transform="translate(86.279297 0)"/>
       <use xlink:href="#DejaVuSans-73" transform="translate(147.802734 0)"/>
       <use xlink:href="#DejaVuSans-6f" transform="translate(199.902344 0)"/>
       <use xlink:href="#DejaVuSans-74" transform="translate(261.083984 0)"/>
       <use xlink:href="#DejaVuSans-68" transform="translate(300.292969 0)"/>
       <use xlink:href="#DejaVuSans-65" transform="translate(363.671875 0)"/>
       <use xlink:href="#DejaVuSans-6c" transform="translate(425.195312 0)"/>
       <use xlink:href="#DejaVuSans-69" transform="translate(452.978516 0)"/>
       <use xlink:href="#DejaVuSans-61" transform="translate(480.761719 0)"/>
       <use xlink:href="#DejaVuSans-6c" transform="translate(542.041016 0)"/>
      </g>
     </g>
    </g>
    <g id="ytick_19">
     <g id="line2d_25">
      <g>
       <use xlink:href="#m14f7861ba8" x="115.857812" y="376.193042" style="stroke: #000000; stroke-width: 0.8"/>
      </g>
     </g>
     <g id="text_26">
      <!-- Airway Epithelium -->
      <g transform="translate(27.296719 379.612338) scale(0.09 -0.09)">
       <defs>
        <path id="DejaVuSans-77" d="M 269 3500 
L 844 3500 
L 1563 769 
L 2278 3500 
L 2956 3500 
L 3675 769 
L 4391 3500 
L 4966 3500 
L 4050 0 
L 3372 0 
L 2619 2869 
L 1863 0 
L 1184 0 
L 269 3500 
z
" transform="scale(0.015625)"/>
       </defs>
       <use xlink:href="#DejaVuSans-41"/>
       <use xlink:href="#DejaVuSans-69" transform="translate(68.408203 0)"/>
       <use xlink:href="#DejaVuSans-72" transform="translate(96.191406 0)"/>
       <use xlink:href="#DejaVuSans-77" transform="translate(137.304688 0)"/>
       <use xlink:href="#DejaVuSans-61" transform="translate(219.091797 0)"/>
       <use xlink:href="#DejaVuSans-79" transform="translate(280.371094 0)"/>
       <use xlink:href="#DejaVuSans-20" transform="translate(339.550781 0)"/>
       <use xlink:href="#DejaVuSans-45" transform="translate(371.337891 0)"/>
       <use xlink:href="#DejaVuSans-70" transform="translate(434.521484 0)"/>
       <use xlink:href="#DejaVuSans-69" transform="translate(497.998047 0)"/>
       <use xlink:href="#DejaVuSans-74" transform="translate(525.78125 0)"/>
       <use xlink:href="#DejaVuSans-68" transform="translate(564.990234 0)"/>
       <use xlink:href="#DejaVuSans-65" transform="translate(628.369141 0)"/>
       <use xlink:href="#DejaVuSans-6c" transform="translate(689.892578 0)"/>
       <use xlink:href="#DejaVuSans-69" transform="translate(717.675781 0)"/>
       <use xlink:href="#DejaVuSans-75" transform="translate(745.458984 0)"/>
       <use xlink:href="#DejaVuSans-6d" transform="translate(808.837891 0)"/>
      </g>
     </g>
    </g>
    <g id="ytick_20">
     <g id="line2d_26">
      <g>
       <use xlink:href="#m14f7861ba8" x="115.857812" y="354.140578" style="stroke: #000000; stroke-width: 0.8"/>
      </g>
     </g>
     <g id="text_27">
      <!-- NK cells -->
      <g transform="translate(73.186875 357.559875) scale(0.09 -0.09)">
       <defs>
        <path id="DejaVuSans-4b" d="M 628 4666 
L 1259 4666 
L 1259 2694 
L 3353 4666 
L 4166 4666 
L 1850 2491 
L 4331 0 
L 3500 0 
L 1259 2247 
L 1259 0 
L 628 0 
L 628 4666 
z
" transform="scale(0.015625)"/>
       </defs>
       <use xlink:href="#DejaVuSans-4e"/>
       <use xlink:href="#DejaVuSans-4b" transform="translate(74.804688 0)"/>
       <use xlink:href="#DejaVuSans-20" transform="translate(140.380859 0)"/>
       <use xlink:href="#DejaVuSans-63" transform="translate(172.167969 0)"/>
       <use xlink:href="#DejaVuSans-65" transform="translate(227.148438 0)"/>
       <use xlink:href="#DejaVuSans-6c" transform="translate(288.671875 0)"/>
       <use xlink:href="#DejaVuSans-6c" transform="translate(316.455078 0)"/>
       <use xlink:href="#DejaVuSans-73" transform="translate(344.238281 0)"/>
      </g>
     </g>
    </g>
    <g id="ytick_21">
     <g id="line2d_27">
      <g>
       <use xlink:href="#m14f7861ba8" x="115.857812" y="332.088114" style="stroke: #000000; stroke-width: 0.8"/>
      </g>
     </g>
     <g id="text_28">
      <!-- Mast cells -->
      <g transform="translate(64.324687 335.507411) scale(0.09 -0.09)">
       <use xlink:href="#DejaVuSans-4d"/>
       <use xlink:href="#DejaVuSans-61" transform="translate(86.279297 0)"/>
       <use xlink:href="#DejaVuSans-73" transform="translate(147.558594 0)"/>
       <use xlink:href="#DejaVuSans-74" transform="translate(199.658203 0)"/>
       <use xlink:href="#DejaVuSans-20" transform="translate(238.867188 0)"/>
       <use xlink:href="#DejaVuSans-63" transform="translate(270.654297 0)"/>
       <use xlink:href="#DejaVuSans-65" transform="translate(325.634766 0)"/>
       <use xlink:href="#DejaVuSans-6c" transform="translate(387.158203 0)"/>
       <use xlink:href="#DejaVuSans-6c" transform="translate(414.941406 0)"/>
       <use xlink:href="#DejaVuSans-73" transform="translate(442.724609 0)"/>
      </g>
     </g>
    </g>
    <g id="ytick_22">
     <g id="line2d_28">
      <g>
       <use xlink:href="#m14f7861ba8" x="115.857812" y="310.035651" style="stroke: #000000; stroke-width: 0.8"/>
      </g>
     </g>
     <g id="text_29">
      <!-- Endothelial (Micro) -->
      <g transform="translate(24.359062 313.454948) scale(0.09 -0.09)">
       <use xlink:href="#DejaVuSans-45"/>
       <use xlink:href="#DejaVuSans-6e" transform="translate(63.183594 0)"/>
       <use xlink:href="#DejaVuSans-64" transform="translate(126.5625 0)"/>
       <use xlink:href="#DejaVuSans-6f" transform="translate(190.039062 0)"/>
       <use xlink:href="#DejaVuSans-74" transform="translate(251.220703 0)"/>
       <use xlink:href="#DejaVuSans-68" transform="translate(290.429688 0)"/>
       <use xlink:href="#DejaVuSans-65" transform="translate(353.808594 0)"/>
       <use xlink:href="#DejaVuSans-6c" transform="translate(415.332031 0)"/>
       <use xlink:href="#DejaVuSans-69" transform="translate(443.115234 0)"/>
       <use xlink:href="#DejaVuSans-61" transform="translate(470.898438 0)"/>
       <use xlink:href="#DejaVuSans-6c" transform="translate(532.177734 0)"/>
       <use xlink:href="#DejaVuSans-20" transform="translate(559.960938 0)"/>
       <use xlink:href="#DejaVuSans-28" transform="translate(591.748047 0)"/>
       <use xlink:href="#DejaVuSans-4d" transform="translate(630.761719 0)"/>
       <use xlink:href="#DejaVuSans-69" transform="translate(717.041016 0)"/>
       <use xlink:href="#DejaVuSans-63" transform="translate(744.824219 0)"/>
       <use xlink:href="#DejaVuSans-72" transform="translate(799.804688 0)"/>
       <use xlink:href="#DejaVuSans-6f" transform="translate(838.667969 0)"/>
       <use xlink:href="#DejaVuSans-29" transform="translate(899.849609 0)"/>
      </g>
     </g>
    </g>
    <g id="ytick_23">
     <g id="line2d_29">
      <g>
       <use xlink:href="#m14f7861ba8" x="115.857812" y="287.983187" style="stroke: #000000; stroke-width: 0.8"/>
      </g>
     </g>
     <g id="text_30">
      <!-- Neuronal -->
      <g transform="translate(68.159531 291.402484) scale(0.09 -0.09)">
       <use xlink:href="#DejaVuSans-4e"/>
       <use xlink:href="#DejaVuSans-65" transform="translate(74.804688 0)"/>
       <use xlink:href="#DejaVuSans-75" transform="translate(136.328125 0)"/>
       <use xlink:href="#DejaVuSans-72" transform="translate(199.707031 0)"/>
       <use xlink:href="#DejaVuSans-6f" transform="translate(238.570312 0)"/>
       <use xlink:href="#DejaVuSans-6e" transform="translate(299.751953 0)"/>
       <use xlink:href="#DejaVuSans-61" transform="translate(363.130859 0)"/>
       <use xlink:href="#DejaVuSans-6c" transform="translate(424.410156 0)"/>
      </g>
     </g>
    </g>
    <g id="ytick_24">
     <g id="line2d_30">
      <g>
       <use xlink:href="#m14f7861ba8" x="115.857812" y="265.930724" style="stroke: #000000; stroke-width: 0.8"/>
      </g>
     </g>
     <g id="text_31">
      <!-- AT1 -->
      <g transform="translate(92.175469 269.350021) scale(0.09 -0.09)">
       <defs>
        <path id="DejaVuSans-54" d="M -19 4666 
L 3928 4666 
L 3928 4134 
L 2272 4134 
L 2272 0 
L 1638 0 
L 1638 4134 
L -19 4134 
L -19 4666 
z
" transform="scale(0.015625)"/>
        <path id="DejaVuSans-31" d="M 794 531 
L 1825 531 
L 1825 4091 
L 703 3866 
L 703 4441 
L 1819 4666 
L 2450 4666 
L 2450 531 
L 3481 531 
L 3481 0 
L 794 0 
L 794 531 
z
" transform="scale(0.015625)"/>
       </defs>
       <use xlink:href="#DejaVuSans-41"/>
       <use xlink:href="#DejaVuSans-54" transform="translate(60.658203 0)"/>
       <use xlink:href="#DejaVuSans-31" transform="translate(121.742188 0)"/>
      </g>
     </g>
    </g>
    <g id="ytick_25">
     <g id="line2d_31">
      <g>
       <use xlink:href="#m14f7861ba8" x="115.857812" y="243.87826" style="stroke: #000000; stroke-width: 0.8"/>
      </g>
     </g>
     <g id="text_32">
      <!-- Fibroblasts -->
      <g transform="translate(60.481406 247.297557) scale(0.09 -0.09)">
       <use xlink:href="#DejaVuSans-46"/>
       <use xlink:href="#DejaVuSans-69" transform="translate(50.269531 0)"/>
       <use xlink:href="#DejaVuSans-62" transform="translate(78.052734 0)"/>
       <use xlink:href="#DejaVuSans-72" transform="translate(141.529297 0)"/>
       <use xlink:href="#DejaVuSans-6f" transform="translate(180.392578 0)"/>
       <use xlink:href="#DejaVuSans-62" transform="translate(241.574219 0)"/>
       <use xlink:href="#DejaVuSans-6c" transform="translate(305.050781 0)"/>
       <use xlink:href="#DejaVuSans-61" transform="translate(332.833984 0)"/>
       <use xlink:href="#DejaVuSans-73" transform="translate(394.113281 0)"/>
       <use xlink:href="#DejaVuSans-74" transform="translate(446.212891 0)"/>
       <use xlink:href="#DejaVuSans-73" transform="translate(485.421875 0)"/>
      </g>
     </g>
    </g>
    <g id="ytick_26">
     <g id="line2d_32">
      <g>
       <use xlink:href="#m14f7861ba8" x="115.857812" y="221.825797" style="stroke: #000000; stroke-width: 0.8"/>
      </g>
     </g>
     <g id="text_33">
      <!-- CD4+ T cells -->
      <g transform="translate(50.982187 225.245094) scale(0.09 -0.09)">
       <use xlink:href="#DejaVuSans-43"/>
       <use xlink:href="#DejaVuSans-44" transform="translate(69.824219 0)"/>
       <use xlink:href="#DejaVuSans-34" transform="translate(146.826172 0)"/>
       <use xlink:href="#DejaVuSans-2b" transform="translate(210.449219 0)"/>
       <use xlink:href="#DejaVuSans-20" transform="translate(294.238281 0)"/>
       <use xlink:href="#DejaVuSans-54" transform="translate(326.025391 0)"/>
       <use xlink:href="#DejaVuSans-20" transform="translate(387.109375 0)"/>
       <use xlink:href="#DejaVuSans-63" transform="translate(418.896484 0)"/>
       <use xlink:href="#DejaVuSans-65" transform="translate(473.876953 0)"/>
       <use xlink:href="#DejaVuSans-6c" transform="translate(535.400391 0)"/>
       <use xlink:href="#DejaVuSans-6c" transform="translate(563.183594 0)"/>
       <use xlink:href="#DejaVuSans-73" transform="translate(590.966797 0)"/>
      </g>
     </g>
    </g>
    <g id="ytick_27">
     <g id="line2d_33">
      <g>
       <use xlink:href="#m14f7861ba8" x="115.857812" y="199.773333" style="stroke: #000000; stroke-width: 0.8"/>
      </g>
     </g>
     <g id="text_34">
      <!-- Monocytes -->
      <g transform="translate(60.345 203.19263) scale(0.09 -0.09)">
       <use xlink:href="#DejaVuSans-4d"/>
       <use xlink:href="#DejaVuSans-6f" transform="translate(86.279297 0)"/>
       <use xlink:href="#DejaVuSans-6e" transform="translate(147.460938 0)"/>
       <use xlink:href="#DejaVuSans-6f" transform="translate(210.839844 0)"/>
       <use xlink:href="#DejaVuSans-63" transform="translate(272.021484 0)"/>
       <use xlink:href="#DejaVuSans-79" transform="translate(327.001953 0)"/>
       <use xlink:href="#DejaVuSans-74" transform="translate(386.181641 0)"/>
       <use xlink:href="#DejaVuSans-65" transform="translate(425.390625 0)"/>
       <use xlink:href="#DejaVuSans-73" transform="translate(486.914062 0)"/>
      </g>
     </g>
    </g>
    <g id="ytick_28">
     <g id="line2d_34">
      <g>
       <use xlink:href="#m14f7861ba8" x="115.857812" y="177.72087" style="stroke: #000000; stroke-width: 0.8"/>
      </g>
     </g>
     <g id="text_35">
      <!-- Macrophages -->
      <g transform="translate(48.751875 181.140166) scale(0.09 -0.09)">
       <use xlink:href="#DejaVuSans-4d"/>
       <use xlink:href="#DejaVuSans-61" transform="translate(86.279297 0)"/>
       <use xlink:href="#DejaVuSans-63" transform="translate(147.558594 0)"/>
       <use xlink:href="#DejaVuSans-72" transform="translate(202.539062 0)"/>
       <use xlink:href="#DejaVuSans-6f" transform="translate(241.402344 0)"/>
       <use xlink:href="#DejaVuSans-70" transform="translate(302.583984 0)"/>
       <use xlink:href="#DejaVuSans-68" transform="translate(366.060547 0)"/>
       <use xlink:href="#DejaVuSans-61" transform="translate(429.439453 0)"/>
       <use xlink:href="#DejaVuSans-67" transform="translate(490.71875 0)"/>
       <use xlink:href="#DejaVuSans-65" transform="translate(554.195312 0)"/>
       <use xlink:href="#DejaVuSans-73" transform="translate(615.71875 0)"/>
      </g>
     </g>
    </g>
    <g id="ytick_29">
     <g id="line2d_35">
      <g>
       <use xlink:href="#m14f7861ba8" x="115.857812" y="155.668406" style="stroke: #000000; stroke-width: 0.8"/>
      </g>
     </g>
     <g id="text_36">
      <!-- AT2 -->
      <g transform="translate(92.175469 159.087703) scale(0.09 -0.09)">
       <use xlink:href="#DejaVuSans-41"/>
       <use xlink:href="#DejaVuSans-54" transform="translate(60.658203 0)"/>
       <use xlink:href="#DejaVuSans-32" transform="translate(121.742188 0)"/>
      </g>
     </g>
    </g>
    <g id="ytick_30">
     <g id="line2d_36">
      <g>
       <use xlink:href="#m14f7861ba8" x="115.857812" y="133.615942" style="stroke: #000000; stroke-width: 0.8"/>
      </g>
     </g>
     <g id="text_37">
      <!-- CD8+ T cells -->
      <g transform="translate(50.982187 137.035239) scale(0.09 -0.09)">
       <defs>
        <path id="DejaVuSans-38" d="M 2034 2216 
Q 1584 2216 1326 1975 
Q 1069 1734 1069 1313 
Q 1069 891 1326 650 
Q 1584 409 2034 409 
Q 2484 409 2743 651 
Q 3003 894 3003 1313 
Q 3003 1734 2745 1975 
Q 2488 2216 2034 2216 
z
M 1403 2484 
Q 997 2584 770 2862 
Q 544 3141 544 3541 
Q 544 4100 942 4425 
Q 1341 4750 2034 4750 
Q 2731 4750 3128 4425 
Q 3525 4100 3525 3541 
Q 3525 3141 3298 2862 
Q 3072 2584 2669 2484 
Q 3125 2378 3379 2068 
Q 3634 1759 3634 1313 
Q 3634 634 3220 271 
Q 2806 -91 2034 -91 
Q 1263 -91 848 271 
Q 434 634 434 1313 
Q 434 1759 690 2068 
Q 947 2378 1403 2484 
z
M 1172 3481 
Q 1172 3119 1398 2916 
Q 1625 2713 2034 2713 
Q 2441 2713 2670 2916 
Q 2900 3119 2900 3481 
Q 2900 3844 2670 4047 
Q 2441 4250 2034 4250 
Q 1625 4250 1398 4047 
Q 1172 3844 1172 3481 
z
" transform="scale(0.015625)"/>
       </defs>
       <use xlink:href="#DejaVuSans-43"/>
       <use xlink:href="#DejaVuSans-44" transform="translate(69.824219 0)"/>
       <use xlink:href="#DejaVuSans-38" transform="translate(146.826172 0)"/>
       <use xlink:href="#DejaVuSans-2b" transform="translate(210.449219 0)"/>
       <use xlink:href="#DejaVuSans-20" transform="translate(294.238281 0)"/>
       <use xlink:href="#DejaVuSans-54" transform="translate(326.025391 0)"/>
       <use xlink:href="#DejaVuSans-20" transform="translate(387.109375 0)"/>
       <use xlink:href="#DejaVuSans-63" transform="translate(418.896484 0)"/>
       <use xlink:href="#DejaVuSans-65" transform="translate(473.876953 0)"/>
       <use xlink:href="#DejaVuSans-6c" transform="translate(535.400391 0)"/>
       <use xlink:href="#DejaVuSans-6c" transform="translate(563.183594 0)"/>
       <use xlink:href="#DejaVuSans-73" transform="translate(590.966797 0)"/>
      </g>
     </g>
    </g>
    <g id="ytick_31">
     <g id="line2d_37">
      <g>
       <use xlink:href="#m14f7861ba8" x="115.857812" y="111.563479" style="stroke: #000000; stroke-width: 0.8"/>
      </g>
     </g>
     <g id="text_38">
      <!-- Cycling NK/T cells -->
      <g transform="translate(28.819688 114.982776) scale(0.09 -0.09)">
       <defs>
        <path id="DejaVuSans-2f" d="M 1625 4666 
L 2156 4666 
L 531 -594 
L 0 -594 
L 1625 4666 
z
" transform="scale(0.015625)"/>
       </defs>
       <use xlink:href="#DejaVuSans-43"/>
       <use xlink:href="#DejaVuSans-79" transform="translate(69.824219 0)"/>
       <use xlink:href="#DejaVuSans-63" transform="translate(129.003906 0)"/>
       <use xlink:href="#DejaVuSans-6c" transform="translate(183.984375 0)"/>
       <use xlink:href="#DejaVuSans-69" transform="translate(211.767578 0)"/>
       <use xlink:href="#DejaVuSans-6e" transform="translate(239.550781 0)"/>
       <use xlink:href="#DejaVuSans-67" transform="translate(302.929688 0)"/>
       <use xlink:href="#DejaVuSans-20" transform="translate(366.40625 0)"/>
       <use xlink:href="#DejaVuSans-4e" transform="translate(398.193359 0)"/>
       <use xlink:href="#DejaVuSans-4b" transform="translate(472.998047 0)"/>
       <use xlink:href="#DejaVuSans-2f" transform="translate(538.574219 0)"/>
       <use xlink:href="#DejaVuSans-54" transform="translate(572.265625 0)"/>
       <use xlink:href="#DejaVuSans-20" transform="translate(633.349609 0)"/>
       <use xlink:href="#DejaVuSans-63" transform="translate(665.136719 0)"/>
       <use xlink:href="#DejaVuSans-65" transform="translate(720.117188 0)"/>
       <use xlink:href="#DejaVuSans-6c" transform="translate(781.640625 0)"/>
       <use xlink:href="#DejaVuSans-6c" transform="translate(809.423828 0)"/>
       <use xlink:href="#DejaVuSans-73" transform="translate(837.207031 0)"/>
      </g>
     </g>
    </g>
    <g id="ytick_32">
     <g id="line2d_38">
      <g>
       <use xlink:href="#m14f7861ba8" x="115.857812" y="89.511015" style="stroke: #000000; stroke-width: 0.8"/>
      </g>
     </g>
     <g id="text_39">
      <!-- Other Epithelium -->
      <g transform="translate(32.301563 92.930312) scale(0.09 -0.09)">
       <defs>
        <path id="DejaVuSans-4f" d="M 2522 4238 
Q 1834 4238 1429 3725 
Q 1025 3213 1025 2328 
Q 1025 1447 1429 934 
Q 1834 422 2522 422 
Q 3209 422 3611 934 
Q 4013 1447 4013 2328 
Q 4013 3213 3611 3725 
Q 3209 4238 2522 4238 
z
M 2522 4750 
Q 3503 4750 4090 4092 
Q 4678 3434 4678 2328 
Q 4678 1225 4090 567 
Q 3503 -91 2522 -91 
Q 1538 -91 948 565 
Q 359 1222 359 2328 
Q 359 3434 948 4092 
Q 1538 4750 2522 4750 
z
" transform="scale(0.015625)"/>
       </defs>
       <use xlink:href="#DejaVuSans-4f"/>
       <use xlink:href="#DejaVuSans-74" transform="translate(78.710938 0)"/>
       <use xlink:href="#DejaVuSans-68" transform="translate(117.919922 0)"/>
       <use xlink:href="#DejaVuSans-65" transform="translate(181.298828 0)"/>
       <use xlink:href="#DejaVuSans-72" transform="translate(242.822266 0)"/>
       <use xlink:href="#DejaVuSans-20" transform="translate(283.935547 0)"/>
       <use xlink:href="#DejaVuSans-45" transform="translate(315.722656 0)"/>
       <use xlink:href="#DejaVuSans-70" transform="translate(378.90625 0)"/>
       <use xlink:href="#DejaVuSans-69" transform="translate(442.382812 0)"/>
       <use xlink:href="#DejaVuSans-74" transform="translate(470.166016 0)"/>
       <use xlink:href="#DejaVuSans-68" transform="translate(509.375 0)"/>
       <use xlink:href="#DejaVuSans-65" transform="translate(572.753906 0)"/>
       <use xlink:href="#DejaVuSans-6c" transform="translate(634.277344 0)"/>
       <use xlink:href="#DejaVuSans-69" transform="translate(662.060547 0)"/>
       <use xlink:href="#DejaVuSans-75" transform="translate(689.84375 0)"/>
       <use xlink:href="#DejaVuSans-6d" transform="translate(753.222656 0)"/>
      </g>
     </g>
    </g>
    <g id="ytick_33">
     <g id="line2d_39">
      <g>
       <use xlink:href="#m14f7861ba8" x="115.857812" y="67.458552" style="stroke: #000000; stroke-width: 0.8"/>
      </g>
     </g>
     <g id="text_40">
      <!-- Plasma cells -->
      <g transform="translate(53.409375 70.877849) scale(0.09 -0.09)">
       <use xlink:href="#DejaVuSans-50"/>
       <use xlink:href="#DejaVuSans-6c" transform="translate(60.302734 0)"/>
       <use xlink:href="#DejaVuSans-61" transform="translate(88.085938 0)"/>
       <use xlink:href="#DejaVuSans-73" transform="translate(149.365234 0)"/>
       <use xlink:href="#DejaVuSans-6d" transform="translate(201.464844 0)"/>
       <use xlink:href="#DejaVuSans-61" transform="translate(298.876953 0)"/>
       <use xlink:href="#DejaVuSans-20" transform="translate(360.15625 0)"/>
       <use xlink:href="#DejaVuSans-63" transform="translate(391.943359 0)"/>
       <use xlink:href="#DejaVuSans-65" transform="translate(446.923828 0)"/>
       <use xlink:href="#DejaVuSans-6c" transform="translate(508.447266 0)"/>
       <use xlink:href="#DejaVuSans-6c" transform="translate(536.230469 0)"/>
       <use xlink:href="#DejaVuSans-73" transform="translate(564.013672 0)"/>
      </g>
     </g>
    </g>
   </g>
   <g id="line2d_40">
    <path d="M 302.572593 817.517969 
L 302.572593 23.077969 
" clip-path="url(#p4e04eba47e)" style="fill: none; stroke: #000000; stroke-width: 0.5; stroke-linecap: square"/>
   </g>
   <g id="patch_102">
    <path d="M 115.857812 817.517969 
L 115.857812 23.077969 
" style="fill: none; stroke: #000000; stroke-width: 0.8; stroke-linejoin: miter; stroke-linecap: square"/>
   </g>
   <g id="patch_103">
    <path d="M 561.557812 817.517969 
L 561.557812 23.077969 
" style="fill: none; stroke: #000000; stroke-width: 0.8; stroke-linejoin: miter; stroke-linecap: square"/>
   </g>
   <g id="patch_104">
    <path d="M 115.857812 817.517969 
L 561.557812 817.517969 
" style="fill: none; stroke: #000000; stroke-width: 0.8; stroke-linejoin: miter; stroke-linecap: square"/>
   </g>
   <g id="patch_105">
    <path d="M 115.857812 23.077969 
L 561.557812 23.077969 
" style="fill: none; stroke: #000000; stroke-width: 0.8; stroke-linejoin: miter; stroke-linecap: square"/>
   </g>
   <g id="text_41">
    <!-- Differential Abundance by Cell Type -->
    <g transform="translate(222.604609 17.077969) scale(0.13 -0.13)">
     <use xlink:href="#DejaVuSans-44"/>
     <use xlink:href="#DejaVuSans-69" transform="translate(77.001953 0)"/>
     <use xlink:href="#DejaVuSans-66" transform="translate(104.785156 0)"/>
     <use xlink:href="#DejaVuSans-66" transform="translate(139.990234 0)"/>
     <use xlink:href="#DejaVuSans-65" transform="translate(175.195312 0)"/>
     <use xlink:href="#DejaVuSans-72" transform="translate(236.71875 0)"/>
     <use xlink:href="#DejaVuSans-65" transform="translate(275.582031 0)"/>
     <use xlink:href="#DejaVuSans-6e" transform="translate(337.105469 0)"/>
     <use xlink:href="#DejaVuSans-74" transform="translate(400.484375 0)"/>
     <use xlink:href="#DejaVuSans-69" transform="translate(439.693359 0)"/>
     <use xlink:href="#DejaVuSans-61" transform="translate(467.476562 0)"/>
     <use xlink:href="#DejaVuSans-6c" transform="translate(528.755859 0)"/>
     <use xlink:href="#DejaVuSans-20" transform="translate(556.539062 0)"/>
     <use xlink:href="#DejaVuSans-41" transform="translate(588.326172 0)"/>
     <use xlink:href="#DejaVuSans-62" transform="translate(656.734375 0)"/>
     <use xlink:href="#DejaVuSans-75" transform="translate(720.210938 0)"/>
     <use xlink:href="#DejaVuSans-6e" transform="translate(783.589844 0)"/>
     <use xlink:href="#DejaVuSans-64" transform="translate(846.96875 0)"/>
     <use xlink:href="#DejaVuSans-61" transform="translate(910.445312 0)"/>
     <use xlink:href="#DejaVuSans-6e" transform="translate(971.724609 0)"/>
     <use xlink:href="#DejaVuSans-63" transform="translate(1035.103516 0)"/>
     <use xlink:href="#DejaVuSans-65" transform="translate(1090.083984 0)"/>
     <use xlink:href="#DejaVuSans-20" transform="translate(1151.607422 0)"/>
     <use xlink:href="#DejaVuSans-62" transform="translate(1183.394531 0)"/>
     <use xlink:href="#DejaVuSans-79" transform="translate(1246.871094 0)"/>
     <use xlink:href="#DejaVuSans-20" transform="translate(1306.050781 0)"/>
     <use xlink:href="#DejaVuSans-43" transform="translate(1337.837891 0)"/>
     <use xlink:href="#DejaVuSans-65" transform="translate(1407.662109 0)"/>
     <use xlink:href="#DejaVuSans-6c" transform="translate(1469.185547 0)"/>
     <use xlink:href="#DejaVuSans-6c" transform="translate(1496.96875 0)"/>
     <use xlink:href="#DejaVuSans-20" transform="translate(1524.751953 0)"/>
     <use xlink:href="#DejaVuSans-54" transform="translate(1556.539062 0)"/>
     <use xlink:href="#DejaVuSans-79" transform="translate(1601.998047 0)"/>
     <use xlink:href="#DejaVuSans-70" transform="translate(1661.177734 0)"/>
     <use xlink:href="#DejaVuSans-65" transform="translate(1724.654297 0)"/>
    </g>
   </g>
   <g id="legend_1">
    <g id="patch_106">
     <path d="M 449.204062 813.017969 
L 555.257812 813.017969 
Q 557.057812 813.017969 557.057812 811.217969 
L 557.057812 772.487031 
Q 557.057812 770.687031 555.257812 770.687031 
L 449.204062 770.687031 
Q 447.404062 770.687031 447.404062 772.487031 
L 447.404062 811.217969 
Q 447.404062 813.017969 449.204062 813.017969 
z
" style="fill: #ffffff; opacity: 0.8; stroke: #cccccc; stroke-linejoin: miter"/>
    </g>
    <g id="patch_107">
     <path d="M 451.004062 781.125625 
L 469.004062 781.125625 
L 469.004062 774.825625 
L 451.004062 774.825625 
z
" style="fill: #4682b4"/>
    </g>
    <g id="text_42">
     <!-- IPF vs Normal -->
     <g transform="translate(476.204062 781.125625) scale(0.09 -0.09)">
      <use xlink:href="#DejaVuSans-49"/>
      <use xlink:href="#DejaVuSans-50" transform="translate(29.492188 0)"/>
      <use xlink:href="#DejaVuSans-46" transform="translate(89.794922 0)"/>
      <use xlink:href="#DejaVuSans-20" transform="translate(147.314453 0)"/>
      <use xlink:href="#DejaVuSans-76" transform="translate(179.101562 0)"/>
      <use xlink:href="#DejaVuSans-73" transform="translate(238.28125 0)"/>
      <use xlink:href="#DejaVuSans-20" transform="translate(290.380859 0)"/>
      <use xlink:href="#DejaVuSans-4e" transform="translate(322.167969 0)"/>
      <use xlink:href="#DejaVuSans-6f" transform="translate(396.972656 0)"/>
      <use xlink:href="#DejaVuSans-72" transform="translate(458.154297 0)"/>
      <use xlink:href="#DejaVuSans-6d" transform="translate(497.517578 0)"/>
      <use xlink:href="#DejaVuSans-61" transform="translate(594.929688 0)"/>
      <use xlink:href="#DejaVuSans-6c" transform="translate(656.208984 0)"/>
     </g>
    </g>
    <g id="patch_108">
     <path d="M 451.004062 794.335938 
L 469.004062 794.335938 
L 469.004062 788.035938 
L 451.004062 788.035938 
z
" style="fill: #b22222"/>
    </g>
    <g id="text_43">
     <!-- COVID vs Normal -->
     <g transform="translate(476.204062 794.335938) scale(0.09 -0.09)">
      <defs>
       <path id="DejaVuSans-56" d="M 1831 0 
L 50 4666 
L 709 4666 
L 2188 738 
L 3669 4666 
L 4325 4666 
L 2547 0 
L 1831 0 
z
" transform="scale(0.015625)"/>
      </defs>
      <use xlink:href="#DejaVuSans-43"/>
      <use xlink:href="#DejaVuSans-4f" transform="translate(69.824219 0)"/>
      <use xlink:href="#DejaVuSans-56" transform="translate(146.785156 0)"/>
      <use xlink:href="#DejaVuSans-49" transform="translate(215.193359 0)"/>
      <use xlink:href="#DejaVuSans-44" transform="translate(244.685547 0)"/>
      <use xlink:href="#DejaVuSans-20" transform="translate(321.6875 0)"/>
      <use xlink:href="#DejaVuSans-76" transform="translate(353.474609 0)"/>
      <use xlink:href="#DejaVuSans-73" transform="translate(412.654297 0)"/>
      <use xlink:href="#DejaVuSans-20" transform="translate(464.753906 0)"/>
      <use xlink:href="#DejaVuSans-4e" transform="translate(496.541016 0)"/>
      <use xlink:href="#DejaVuSans-6f" transform="translate(571.345703 0)"/>
      <use xlink:href="#DejaVuSans-72" transform="translate(632.527344 0)"/>
      <use xlink:href="#DejaVuSans-6d" transform="translate(671.890625 0)"/>
      <use xlink:href="#DejaVuSans-61" transform="translate(769.302734 0)"/>
      <use xlink:href="#DejaVuSans-6c" transform="translate(830.582031 0)"/>
     </g>
    </g>
    <g id="patch_109">
     <path d="M 451.004062 807.54625 
L 469.004062 807.54625 
L 469.004062 801.24625 
L 451.004062 801.24625 
z
" style="fill: #daa520"/>
    </g>
    <g id="text_44">
     <!-- COVID vs IPF -->
     <g transform="translate(476.204062 807.54625) scale(0.09 -0.09)">
      <use xlink:href="#DejaVuSans-43"/>
      <use xlink:href="#DejaVuSans-4f" transform="translate(69.824219 0)"/>
      <use xlink:href="#DejaVuSans-56" transform="translate(146.785156 0)"/>
      <use xlink:href="#DejaVuSans-49" transform="translate(215.193359 0)"/>
      <use xlink:href="#DejaVuSans-44" transform="translate(244.685547 0)"/>
      <use xlink:href="#DejaVuSans-20" transform="translate(321.6875 0)"/>
      <use xlink:href="#DejaVuSans-76" transform="translate(353.474609 0)"/>
      <use xlink:href="#DejaVuSans-73" transform="translate(412.654297 0)"/>
      <use xlink:href="#DejaVuSans-20" transform="translate(464.753906 0)"/>
      <use xlink:href="#DejaVuSans-49" transform="translate(496.541016 0)"/>
      <use xlink:href="#DejaVuSans-50" transform="translate(526.033203 0)"/>
      <use xlink:href="#DejaVuSans-46" transform="translate(586.335938 0)"/>
     </g>
    </g>
   </g>
  </g>
 </g>
 <defs>
  <clipPath id="p4e04eba47e">
   <rect x="115.857812" y="23.077969" width="445.7" height="794.44"/>
  </clipPath>
 </defs>
</svg>
